<?xml version="1.0" encoding="UTF-8" standalone="no"?>
<!-- Created with Inkscape (http://www.inkscape.org/) -->

<svg
   xmlns:dc="http://purl.org/dc/elements/1.1/"
   xmlns:cc="http://creativecommons.org/ns#"
   xmlns:rdf="http://www.w3.org/1999/02/22-rdf-syntax-ns#"
   xmlns:svg="http://www.w3.org/2000/svg"
   xmlns="http://www.w3.org/2000/svg"
   xmlns:sodipodi="http://sodipodi.sourceforge.net/DTD/sodipodi-0.dtd"
   xmlns:inkscape="http://www.inkscape.org/namespaces/inkscape"
   width="210mm"
   height="297mm"
   viewBox="0 0 210 297"
   version="1.1"
   id="svg8"
   inkscape:version="0.92.3 (2405546, 2018-03-11)"
   sodipodi:docname="diagram.svg">
  <defs
     id="defs2">
    <filter
       x="0"
       y="0"
       color-interpolation-filters="sRGB"
       width="1"
       height="1"
       id="filter41170">
      <feColorMatrix
         id="feColorMatrix1284"
         result="fbSourceGraphic"
         type="saturate"
         values="1" />
      <feColorMatrix
         id="feColorMatrix1286"
         in="fbSourceGraphic"
         values="-1 0 0 0 1 0 -1 0 0 1 0 0 -1 0 1 0 0 0 1 0 "
         result="fbSourceGraphic" />
      <feColorMatrix
         id="feColorMatrix1288"
         in="fbSourceGraphic"
         result="fbSourceGraphicAlpha"
         values="0 0 0 -1 0 0 0 0 -1 0 0 0 0 -1 0 0 0 0 1 0" />
      <feColorMatrix
         id="feColorMatrix1290"
         result="fbSourceGraphic"
         type="saturate"
         in="fbSourceGraphic"
         values="1" />
      <feColorMatrix
         id="feColorMatrix1292"
         in="fbSourceGraphic"
         values="-1 0 0 0 1 0 -1 0 0 1 0 0 -1 0 1 0 0 0 1 0 " />
    </filter>
    <linearGradient
       x1="15.985"
       y1="27.542"
       gradientTransform="matrix(0.997,0.0773,-0.0773,0.997,19.516282,25.178667)"
       x2="43.07"
       gradientUnits="userSpaceOnUse"
       y2="19.303"
       id="linearGradient44294">
      <stop
         id="stop1295"
         offset="0"
         stop-color="#EBEBEB" />
      <stop
         id="stop1297"
         offset="1"
         stop-color="#EAEAEA" />
    </linearGradient>
    <linearGradient
       x1="16.203"
       y1="58.057"
       gradientTransform="matrix(0.997,0.0773,-0.0773,0.997,19.516282,25.178667)"
       x2="27.986"
       gradientUnits="userSpaceOnUse"
       y2="33.207"
       id="linearGradient44296">
      <stop
         id="stop1300"
         offset="0"
         stop-color="#F8F8F8" />
      <stop
         id="stop1302"
         offset="1"
         stop-color="#C9C9C9" />
    </linearGradient>
    <linearGradient
       x1="32.599"
       y1="61.979"
       gradientTransform="matrix(0.997,0.0773,-0.0773,0.997,19.516282,25.178667)"
       x2="45.293"
       gradientUnits="userSpaceOnUse"
       y2="21.949"
       id="linearGradient44298">
      <stop
         id="stop1305"
         offset="0"
         stop-color="#dbdbdb" />
      <stop
         id="stop1307"
         offset="1"
         stop-color="#828282" />
    </linearGradient>
    <linearGradient
       x1="36.438"
       y1="24.493"
       gradientTransform="translate(-48.714648,47.884434)"
       x2="32.954"
       gradientUnits="userSpaceOnUse"
       y2="31.015"
       id="linearGradient44300">
      <stop
         id="stop1310"
         offset="0"
         stop-color="#FFF" />
      <stop
         id="stop1312"
         offset="1"
         stop-color="#FFF" />
    </linearGradient>
    <linearGradient
       x1="36.439"
       y1="24.185"
       gradientTransform="translate(-48.714648,47.884434)"
       x2="32.954"
       gradientUnits="userSpaceOnUse"
       y2="30.708"
       id="linearGradient44302">
      <stop
         id="stop1315"
         offset="0"
         stop-color="#000" />
      <stop
         id="stop1317"
         offset="1"
         stop-color="#6A6A6A" />
    </linearGradient>
    <linearGradient
       x1="21.11"
       y1="32.287"
       gradientTransform="translate(12.486655,33.427377)"
       x2="26.002"
       gradientUnits="userSpaceOnUse"
       y2="32.287"
       id="linearGradient44304">
      <stop
         id="stop1320"
         offset="0"
         stop-color="#e7ebef" />
      <stop
         id="stop1322"
         offset="1"
         stop-color="#c4ce00" />
    </linearGradient>
    <filter
       x="0"
       y="0"
       color-interpolation-filters="sRGB"
       width="1"
       height="1"
       id="filter52861">
      <feColorMatrix
         id="feColorMatrix1325"
         in="SourceGraphic"
         values="1"
         type="saturate"
         result="result2" />
      <feFlood
         id="feFlood1327"
         flood-color="rgb(254,102,0)"
         flood-opacity="1"
         result="result1" />
      <feBlend
         id="feBlend1329"
         mode="multiply"
         in2="result2"
         in="result1"
         result="result3" />
      <feComposite
         id="feComposite1331"
         result="result4"
         in2="SourceGraphic"
         operator="in" />
    </filter>
  </defs>
  <sodipodi:namedview
     id="base"
     pagecolor="#ffffff"
     bordercolor="#666666"
     borderopacity="1.0"
     inkscape:pageopacity="0.0"
     inkscape:pageshadow="2"
     inkscape:zoom="0.35"
     inkscape:cx="-75.714286"
     inkscape:cy="331.42857"
     inkscape:document-units="mm"
     inkscape:current-layer="layer1"
     showgrid="false"
     inkscape:window-width="1920"
     inkscape:window-height="1061"
     inkscape:window-x="2560"
     inkscape:window-y="1440"
     inkscape:window-maximized="1" />
  <metadata
     id="metadata5">
    <rdf:RDF>
      <cc:Work
         rdf:about="">
        <dc:format>image/svg+xml</dc:format>
        <dc:type
           rdf:resource="http://purl.org/dc/dcmitype/StillImage" />
        <dc:title></dc:title>
      </cc:Work>
    </rdf:RDF>
  </metadata>
  <g
     inkscape:label="Layer 1"
     inkscape:groupmode="layer"
     id="layer1">
    <rect
       style="opacity:1;vector-effect:none;fill:#241c1c;fill-opacity:1;stroke:none;stroke-width:0.19240016;stroke-linecap:round;stroke-linejoin:round;stroke-miterlimit:4;stroke-dasharray:none;stroke-dashoffset:0;stroke-opacity:1"
       id="rect1126"
       width="183.69643"
       height="51.404762"
       x="-427.86905"
       y="270.54166" />
    <g
       id="XMLID_229_"
       transform="matrix(0.26458333,0,0,0.26458333,-411.20029,-63.528339)">
	<g
   id="XMLID_690_">
		<g
   id="XMLID_691_">
			<g
   id="g938">
				<g
   id="XMLID_44_">
					<g
   id="XMLID_48_">
						<path
   d="m 177,221.5 v -34.2 c 36.2,0 64.3,-35.9 50.4,-74 -5.1,-14 -16.4,-25.3 -30.5,-30.4 -38.1,-13.8 -74,14.2 -74,50.4 0,0 0,0 0,0 H 88.8 c 0,-57.7 55.8,-102.7 116.3,-83.8 26.4,8.3 47.5,29.3 55.7,55.7 18.9,60.5 -26.1,116.3 -83.8,116.3 z"
   class="st0"
   id="XMLID_49_"
   inkscape:connector-curvature="0"
   style="fill:#0080ff" />

					</g>

					<polygon
   points="177.1,153.4 177.1,153.4 177.1,187.5 143,187.5 143,153.4 "
   class="st1"
   id="XMLID_47_"
   style="clip-rule:evenodd;fill:#0080ff;fill-rule:evenodd" />

					<polygon
   points="143,187.5 143,213.6 116.9,213.6 116.9,187.5 "
   class="st1"
   id="XMLID_46_"
   style="clip-rule:evenodd;fill:#0080ff;fill-rule:evenodd" />

					<path
   d="M 116.9,187.5 H 95 c 0,0 0,0 0,0 v -21.9 c 0,0 0,0 0,0 h 21.9 c 0,0 0,0 0,0 z"
   class="st1"
   id="XMLID_45_"
   inkscape:connector-curvature="0"
   style="clip-rule:evenodd;fill:#0080ff;fill-rule:evenodd" />

				</g>

			</g>

		</g>

	</g>

	<g
   id="XMLID_234_">
		<path
   d="m 31.2,256.1 c -4.4,-3.1 -10,-4.6 -16.4,-4.6 H 0.8 V 296 h 14.1 c 6.4,0 12,-1.6 16.4,-4.9 2.4,-1.7 4.3,-4.1 5.7,-7.1 1.3,-3 2,-6.6 2,-10.5 0,-3.9 -0.7,-7.4 -2,-10.4 -1.4,-3 -3.3,-5.4 -5.8,-7 z M 9,259 h 4.4 c 4.9,0 8.9,1 12,2.9 3.4,2.1 5.1,6 5.1,11.6 0,5.8 -1.7,9.9 -5.1,12.1 v 0 c -2.9,1.9 -6.9,2.9 -11.9,2.9 H 9 Z"
   class="st0"
   id="XMLID_677_"
   inkscape:connector-curvature="0"
   style="fill:#0080ff" />

		<path
   d="m 48.7,250.9 c -1.4,0 -2.5,0.5 -3.5,1.4 -0.9,0.9 -1.4,2 -1.4,3.4 0,1.4 0.5,2.5 1.4,3.5 0.9,0.9 2.1,1.4 3.5,1.4 1.3,0 2.5,-0.5 3.5,-1.4 0.9,-0.9 1.4,-2.1 1.4,-3.5 0,-1.4 -0.5,-2.5 -1.4,-3.4 -1,-0.9 -2.2,-1.4 -3.5,-1.4 z"
   class="st0"
   id="XMLID_676_"
   inkscape:connector-curvature="0"
   style="fill:#0080ff" />

		<rect
   height="31.4"
   width="7.9000001"
   class="st0"
   y="264.60001"
   x="44.700001"
   id="XMLID_675_"
   style="fill:#0080ff" />

		<path
   d="m 81.3,267.2 c -2.4,-2.1 -5,-3.4 -7.9,-3.4 -4.4,0 -8,1.5 -10.8,4.5 -2.8,2.9 -4.3,6.7 -4.3,11.3 0,4.4 1.4,8.2 4.2,11.2 2.8,2.9 6.5,4.4 10.8,4.4 3,0 5.7,-0.8 7.8,-2.5 v 0.7 c 0,2.6 -0.7,4.6 -2.1,6 -1.4,1.4 -3.3,2.1 -5.7,2.1 -3.6,0 -5.9,-1.4 -8.7,-5.2 l -5.4,5.2 0.1,0.2 c 1.2,1.6 2.9,3.2 5.3,4.7 2.3,1.5 5.3,2.3 8.8,2.3 4.7,0 8.5,-1.4 11.3,-4.3 2.8,-2.9 4.2,-6.7 4.2,-11.4 v -28.5 h -7.8 v 2.7 z m -2.1,18.6 c -1.4,1.6 -3.2,2.3 -5.4,2.3 -2.3,0 -4,-0.8 -5.4,-2.3 -1.4,-1.6 -2,-3.6 -2,-6.1 0,-2.6 0.7,-4.6 2,-6.2 1.3,-1.6 3.2,-2.3 5.4,-2.3 2.3,0 4,0.8 5.4,2.3 1.4,1.6 2.1,3.7 2.1,6.2 0,2.5 -0.7,4.5 -2.1,6.1 z"
   class="st0"
   id="XMLID_670_"
   inkscape:connector-curvature="0"
   style="fill:#0080ff" />

		<rect
   height="31.4"
   width="7.9000001"
   class="st0"
   y="264.60001"
   x="95.800003"
   id="XMLID_668_"
   style="fill:#0080ff" />

		<path
   d="m 99.8,250.9 c -1.4,0 -2.5,0.5 -3.5,1.4 -0.9,0.9 -1.4,2 -1.4,3.4 0,1.4 0.5,2.5 1.4,3.5 0.9,0.9 2.1,1.4 3.5,1.4 1.3,0 2.5,-0.5 3.5,-1.4 0.9,-0.9 1.4,-2.1 1.4,-3.5 0,-1.4 -0.5,-2.5 -1.4,-3.4 -1,-0.9 -2.1,-1.4 -3.5,-1.4 z"
   class="st0"
   id="XMLID_660_"
   inkscape:connector-curvature="0"
   style="fill:#0080ff" />

		<path
   d="m 121,256.1 h -7.8 v 8.5 h -4.5 v 7.2 h 4.5 v 13 c 0,4.1 0.8,7 2.4,8.7 1.6,1.7 4.5,2.5 8.5,2.5 1.3,0 2.6,0 3.8,-0.1 h 0.4 v -7.2 l -2.7,0.1 c -1.9,0 -3.1,-0.3 -3.7,-1 -0.6,-0.7 -0.9,-2.1 -0.9,-4.2 v -11.9 h 7.4 v -7.2 H 121 Z"
   class="st0"
   id="XMLID_652_"
   inkscape:connector-curvature="0"
   style="fill:#0080ff" />

		<rect
   height="44.599998"
   width="7.9000001"
   class="st0"
   y="251.39999"
   x="165.39999"
   id="XMLID_642_"
   style="fill:#0080ff" />

		<path
   d="m 253.1,284.8 c -1.4,1.6 -2.9,3 -4,3.7 v 0 c -1.1,0.7 -2.5,1.1 -4.1,1.1 -2.3,0 -4.2,-0.8 -5.7,-2.6 -1.5,-1.7 -2.3,-4 -2.3,-6.6 0,-2.7 0.8,-4.9 2.3,-6.6 1.5,-1.7 3.4,-2.6 5.7,-2.6 2.5,0 5.2,1.6 7.5,4.3 l 5.2,-5 v 0 c -3.4,-4.4 -7.7,-6.5 -12.9,-6.5 -4.3,0 -8.1,1.6 -11.2,4.7 -3.1,3.1 -4.6,7 -4.6,11.7 0,4.7 1.6,8.6 4.6,11.7 3.1,3.1 6.8,4.7 11.2,4.7 5.7,0 10.3,-2.5 13.5,-7 z"
   class="st0"
   id="XMLID_448_"
   inkscape:connector-curvature="0"
   style="fill:#0080ff" />

		<path
   d="m 285.6,269 c -1.1,-1.6 -2.6,-2.8 -4.5,-3.7 -1.9,-0.9 -4.1,-1.4 -6.5,-1.4 -4.4,0 -8,1.6 -10.7,4.8 -2.6,3.2 -4,7.1 -4,11.8 0,4.8 1.5,8.7 4.3,11.7 2.9,3 6.7,4.5 11.4,4.5 5.3,0 9.7,-2.2 13,-6.4 l 0.2,-0.2 -5.2,-5 v 0 c -0.5,0.6 -1.2,1.2 -1.8,1.8 -0.8,0.7 -1.5,1.3 -2.3,1.7 -1.2,0.6 -2.5,0.9 -4,0.9 -2.2,0 -4,-0.6 -5.4,-1.9 -1.3,-1.2 -2.1,-2.8 -2.3,-4.8 h 20.9 l 0.1,-2.9 c 0,-2 -0.3,-4 -0.8,-5.8 -0.5,-1.8 -1.3,-3.5 -2.4,-5.1 z m -17.3,7.4 c 0.4,-1.5 1.1,-2.8 2.1,-3.7 1.1,-1.1 2.5,-1.6 4.1,-1.6 1.9,0 3.4,0.5 4.4,1.6 0.9,1 1.5,2.2 1.6,3.7 z"
   class="st0"
   id="XMLID_445_"
   inkscape:connector-curvature="0"
   style="fill:#0080ff" />

		<path
   d="m 315.9,267 v 0 c -2.4,-2 -5.7,-3.1 -9.8,-3.1 -2.6,0 -5.1,0.6 -7.3,1.7 -2.1,1 -4.1,2.8 -5.4,5 l 0.1,0.1 5.1,4.8 c 2.1,-3.3 4.4,-4.5 7.5,-4.5 1.7,0 3,0.4 4.1,1.3 1,0.9 1.6,2 1.6,3.4 v 1.5 c -2,-0.6 -3.9,-0.9 -5.8,-0.9 -3.9,0 -7.1,0.9 -9.5,2.7 -2.4,1.8 -3.6,4.5 -3.6,7.9 0,3 1,5.3 3.1,7.1 2.1,1.7 4.6,2.6 7.6,2.6 3,0 5.8,-1.2 8.4,-3.3 v 2.6 h 7.8 v -20.2 c -0.3,-3.7 -1.5,-6.7 -3.9,-8.7 z m -14,17 c 0.9,-0.6 2.2,-0.9 3.8,-0.9 1.9,0 3.9,0.4 6,1.1 v 3.1 c -1.7,1.6 -4,2.4 -6.8,2.4 -1.4,0 -2.4,-0.3 -3.2,-0.9 -0.7,-0.6 -1.1,-1.3 -1.1,-2.3 0,-1.1 0.4,-1.9 1.3,-2.5 z"
   class="st0"
   id="XMLID_442_"
   inkscape:connector-curvature="0"
   style="fill:#0080ff" />

		<path
   d="m 349.9,267.6 c -2.2,-2.5 -5.3,-3.7 -9.2,-3.7 -3.1,0 -5.7,0.9 -7.6,2.7 v -1.9 h -7.7 V 296 h 7.9 v -17.3 c 0,-2.4 0.6,-4.3 1.7,-5.6 1.1,-1.3 2.6,-2 4.7,-2 1.8,0 3.1,0.6 4.1,1.8 1,1.2 1.5,2.9 1.5,4.9 V 296 h 7.9 v -18.2 c 0,-4.3 -1.1,-7.8 -3.3,-10.2 z"
   class="st0"
   id="XMLID_393_"
   inkscape:connector-curvature="0"
   style="fill:#0080ff" />

		<path
   d="m 155.5,267 v 0 c -2.4,-2 -5.7,-3.1 -9.8,-3.1 -2.6,0 -5.1,0.6 -7.3,1.7 -2.1,1 -4.1,2.8 -5.4,5 l 0.1,0.1 5.1,4.8 c 2.1,-3.3 4.4,-4.5 7.5,-4.5 1.7,0 3,0.4 4.1,1.3 1,0.9 1.6,2 1.6,3.4 v 1.5 c -2,-0.6 -3.9,-0.9 -5.8,-0.9 -3.9,0 -7.1,0.9 -9.5,2.7 -2.4,1.8 -3.6,4.5 -3.6,7.9 0,3 1,5.3 3.1,7.1 2.1,1.7 4.6,2.6 7.6,2.6 3,0 5.8,-1.2 8.4,-3.3 v 2.6 h 7.8 v -20.2 c -0.3,-3.7 -1.5,-6.7 -3.9,-8.7 z m -14,17 c 0.9,-0.6 2.2,-0.9 3.8,-0.9 1.9,0 3.9,0.4 6,1.1 v 3.1 c -1.7,1.6 -4,2.4 -6.8,2.4 -1.4,0 -2.4,-0.3 -3.2,-0.9 -0.7,-0.6 -1.1,-1.3 -1.1,-2.3 0,-1.1 0.4,-1.9 1.3,-2.5 z"
   class="st0"
   id="XMLID_320_"
   inkscape:connector-curvature="0"
   style="fill:#0080ff" />

		<path
   d="m 202,296.7 c -12.7,0 -23,-10.3 -23,-23 0,-12.7 10.3,-23 23,-23 12.7,0 23,10.3 23,23 0,12.7 -10.3,23 -23,23 z m 0,-37.9 c -8.2,0 -14.9,6.7 -14.9,14.9 0,8.2 6.7,14.9 14.9,14.9 8.2,0 14.9,-6.7 14.9,-14.9 0,-8.2 -6.7,-14.9 -14.9,-14.9 z"
   class="st0"
   id="XMLID_235_"
   inkscape:connector-curvature="0"
   style="fill:#0080ff" />

	</g>

</g>
    <g
       id="g1014"
       transform="matrix(0.02419196,0,0,0.02419196,-441.79909,218.73816)">
      <path
         id="path991"
         d="m 1057.1,369.2 h 50.8 l 144.8,-144.8 7.1,-61.5 C 990.3,-75 579,-49.3 341.1,220.2 275,295 227.1,384.1 200.9,480.5 c 16.1,-6.6 34,-7.7 50.8,-3 l 289.6,-47.8 c 0,0 14.7,-24.4 22.4,-22.9 128.8,-141.5 345.6,-158 494.4,-37.6 z"
         inkscape:connector-curvature="0"
         style="fill:#ea4335" />
      <path
         id="path993"
         d="m 1459,480.5 c -33.3,-122.6 -101.6,-232.8 -196.6,-317 l -203.2,203.2 c 85.8,70.1 134.7,175.8 132.6,286.6 v 36.1 c 99.9,0 180.9,81 180.9,180.9 0,99.9 -81,180.9 -180.9,180.9 H 830 l -36.1,36.6 v 217 l 36.1,36.1 h 361.8 c 259.8,2 472.1,-207 474.1,-466.8 1.2,-157.8 -76.5,-305.4 -206.9,-393.6 z"
         inkscape:connector-curvature="0"
         style="fill:#4285f4" />
      <path
         id="path995"
         d="M 467.7,1338.6 H 829.5 V 1049 H 467.7 c -25.8,0 -51.2,-5.6 -74.7,-16.3 l -50.8,15.8 -145.8,144.8 -12.7,50.8 c 81.7,61.8 181.5,95 284,94.5 z"
         inkscape:connector-curvature="0"
         style="fill:#34a853" />
      <path
         id="path997"
         d="M 467.7,399.2 C 207.8,400.7 -1.5,612.6 0,872.5 c 0.9,145.1 68.6,281.7 183.7,370.1 L 393.5,1032.8 C 302.5,991.7 262,884.5 303.1,793.5 c 41.1,-91 148.3,-131.5 239.3,-90.4 40.1,18.1 72.2,50.3 90.4,90.4 L 842.6,583.7 C 753.4,466.9 614.6,398.6 467.7,399.2 Z"
         inkscape:connector-curvature="0"
         style="fill:#fbbc05" />
      <path
         id="path999"
         d="m 2629.1,1136.4 c -125.9,1.6 -246.9,-48.1 -335.3,-137.7 -91.3,-85.8 -142.3,-206 -140.7,-331.3 -1.5,-125.3 49.5,-245.4 140.7,-331.3 88,-90.5 209.1,-141.2 335.3,-140.2 120.2,-1.6 236.1,45.1 321.6,129.6 l -90.4,92 c -61.9,-59.9 -145.1,-92.7 -231.2,-91.5 -90.3,-1.1 -177,35.8 -238.8,101.6 -64.2,63.7 -99.6,150.9 -98.1,241.3 -0.8,89.4 34.6,175.3 98.1,238.3 130.8,130.4 341.7,132.9 475.6,5.6 39.9,-43.6 64.3,-99.2 69.6,-158 h -304.9 v -130 H 3062 c 4.2,26.2 5.9,52.7 5.1,79.3 5.4,110.9 -34.8,219.2 -111.3,299.8 -85.1,88.5 -203.9,136.7 -326.7,132.5 z m 1003,-86.4 c -120.3,115.3 -310.1,115.3 -430.4,0 -58.3,-56.5 -90.1,-134.8 -87.9,-215.9 -2.2,-81.1 29.7,-159.4 87.9,-215.9 120.4,-115 310,-115 430.4,0 58.2,56.5 90.1,134.8 87.9,215.9 2.1,81.2 -30,159.5 -88.4,215.9 z m -335.4,-84.8 c 62.1,66.4 166.3,69.8 232.7,7.6 2.6,-2.5 5.2,-5 7.6,-7.6 33.9,-35.1 52.2,-82.3 50.8,-131.1 1.5,-48.9 -16.8,-96.4 -50.8,-131.6 -63.9,-66.6 -169.7,-68.9 -236.4,-5 -1.7,1.6 -3.4,3.3 -5,5 -34,35.2 -52.3,82.7 -50.8,131.6 -1.3,48.8 17.2,96.1 51.3,131.1 z m 996.9,84.8 c -120.3,115.3 -310.1,115.3 -430.4,0 -58.3,-56.5 -90.1,-134.8 -87.9,-215.9 -2.2,-81.1 29.7,-159.4 87.9,-215.9 120.3,-115.3 310.1,-115.3 430.4,0 58.2,56.5 90.1,134.8 87.9,215.9 2.3,81.1 -29.6,159.4 -87.9,215.9 z m -335.3,-84.8 c 62.1,66.4 166.3,69.8 232.7,7.6 2.6,-2.5 5.2,-5 7.6,-7.6 33.9,-35.1 52.2,-82.3 50.8,-131.1 1.5,-48.9 -16.8,-96.4 -50.8,-131.6 -63.9,-66.6 -169.7,-68.9 -236.3,-5 -1.7,1.6 -3.4,3.3 -5,5 -34,35.2 -52.3,82.7 -50.8,131.6 -1.3,48.8 17.2,96.1 51.3,131.1 z m 770.2,442.5 c -60.9,1.9 -120.6,-17.1 -169.2,-53.9 a 311.85,311.85 0 0 1 -98.6,-125 l 115.8,-48.3 c 12.6,29.6 32.3,55.6 57.4,75.7 26.8,21.6 60.5,33 95,32 44.2,2.7 87.4,-14 118.4,-45.7 30.6,-36.9 45.7,-84.3 42.2,-132.1 v -43.7 h -4.6 c -39.3,46.6 -98.2,72 -159,68.6 -77.1,0.2 -150.8,-31.8 -203.2,-88.4 -56.8,-56.1 -88.2,-133 -86.9,-212.9 -1.4,-80.3 30,-157.7 86.9,-214.4 52.3,-56.8 126,-89.1 203.2,-88.9 32.3,-0.1 64.3,7.1 93.5,20.8 25.3,11 47.8,27.5 66.1,48.3 h 4.6 v -48.3 h 126 v 541.1 c 6.7,86.5 -22.5,172 -80.8,236.3 -55.5,53.1 -130,81.5 -206.8,78.8 z m 9.2,-390.2 c 43.9,1 86,-17.7 114.8,-50.8 31.3,-35.9 47.9,-82.4 46.2,-130.1 1.9,-48.5 -14.6,-95.8 -46.2,-132.6 -28.8,-33.2 -70.9,-51.8 -114.8,-50.8 -45.1,-0.9 -88.4,17.6 -118.9,50.8 -33.6,35.5 -51.9,82.8 -50.8,131.6 -1,48.4 17.2,95.2 50.8,130.1 30.3,33.5 73.6,52.4 118.9,51.8 z M 5240.2,230 v 888.1 H 5107.6 V 230 Z m 363.8,906.4 c -80.3,2.1 -157.8,-29.4 -213.9,-86.9 -56.9,-57 -88,-134.9 -85.9,-215.4 -3,-80.7 26.9,-159.2 82.8,-217.5 52.8,-55.6 126.6,-86.4 203.2,-84.9 34.9,-0.4 69.4,6.4 101.6,19.8 29,11.7 55.4,29 77.7,50.8 19.2,18.5 36.2,39.1 50.8,61.5 11.8,18.9 21.8,38.8 30,59.4 L 5864,757.8 5457.6,925 c 25.2,57.8 83.3,94.2 146.3,91.5 60.9,0.2 117.4,-31.7 148.9,-83.8 l 101.6,68.6 a 333.72,333.72 0 0 1 -97.6,92.5 c -45.6,28.8 -98.8,43.6 -152.8,42.6 z M 5434.3,824.9 5704.6,712.6 c -8.3,-19.8 -23.2,-36.1 -42.2,-46.2 -21.2,-12 -45.2,-18.1 -69.6,-17.8 -41.3,1.1 -80.6,18.4 -109.2,48.3 -34.7,33.2 -52.8,80.1 -49.3,128 z m 1124.4,311.5 c -231.2,4 -421.8,-180.2 -425.8,-411.4 -0.1,-5.6 -0.1,-11.3 0.1,-16.9 -5.4,-231.2 177.7,-422.9 408.8,-428.3 5.6,-0.1 11.3,-0.1 16.9,-0.1 115.6,-3.6 226.6,45.8 301.3,134.1 l -73.2,71.1 c -54.9,-69.1 -139.5,-107.8 -227.6,-104.2 -84.5,-1.9 -166.2,30.8 -226.1,90.4 -62.3,62.7 -95.6,148.5 -92,236.8 -3.7,88.3 29.7,174.1 92,236.8 59.9,59.7 141.6,92.3 226.1,90.4 98.4,1.1 191.9,-42.7 254,-118.9 l 73.2,73.2 c -38.3,45.8 -86.4,82.4 -140.7,107.2 -58.6,27.2 -122.5,40.8 -187,39.8 z M 7083,1118.1 H 6977.8 V 297.5 H 7083 Z m 171.8,-493.9 c 114.7,-113.9 299.9,-113.9 414.6,0 54.4,57.5 83.7,134.3 81.3,213.4 2.4,79.1 -26.9,155.9 -81.3,213.4 -114.7,113.9 -299.9,113.9 -414.6,0 -54.4,-57.5 -83.7,-134.3 -81.3,-213.4 -2.4,-79.1 26.8,-155.9 81.3,-213.4 z M 7333,985 c 67.3,71.1 179.5,74.2 250.7,6.9 2.4,-2.2 4.7,-4.6 6.9,-6.9 37.1,-39.8 56.7,-92.9 54.4,-147.3 2.4,-54.4 -17.2,-107.5 -54.4,-147.3 -67.3,-71.1 -179.5,-74.2 -250.7,-6.9 -2.4,2.2 -4.7,4.6 -6.9,6.9 -37.1,39.8 -56.7,92.9 -54.4,147.3 -2.1,54.3 17.7,107.2 54.9,146.8 z m 1000.4,133.1 h -101.6 v -77.7 h -3 c -18.1,29.5 -43.7,53.7 -74.2,70.1 -31.6,18.3 -67.6,28 -104.2,27.9 -60.2,4.1 -118.9,-19.5 -159.5,-64 -38.5,-48.7 -57.8,-109.8 -54.4,-171.7 V 557.2 h 105.2 v 326.2 c 0,104.7 46.2,157 138.7,157 41.7,1.3 81.4,-17.6 106.7,-50.8 27.3,-34.5 41.8,-77.4 41.2,-121.4 v -311 h 105.2 v 560.9 z m 357.2,18.3 c -72.2,0.2 -140.9,-31.1 -188,-85.9 -52.7,-58.2 -80.9,-134.4 -78.8,-212.9 -2.1,-78.5 26.1,-154.7 78.8,-212.9 47.1,-54.7 115.8,-86.1 188,-85.9 40,-0.6 79.5,8.8 114.8,27.4 31.1,15.6 57.4,39.3 76.2,68.6 h 4.6 l -4.6,-77.7 V 297.5 h 105.2 v 820.6 h -101.6 v -77.7 h -4.6 c -18.8,29.3 -45.1,53 -76.2,68.6 -35,18.4 -74.1,27.9 -113.8,27.4 z m 17.3,-96 c 48.1,0.7 94.2,-19.3 126.5,-54.9 35.7,-40.7 54,-93.8 50.8,-147.9 3.2,-54 -15.1,-107.2 -50.8,-147.9 -63.8,-70.2 -172.4,-75.3 -242.6,-11.4 -4,3.6 -7.8,7.5 -11.4,11.4 -35.8,40.4 -54.1,93.4 -50.8,147.3 -3.3,53.9 15,106.9 50.8,147.3 32.4,36.4 78.9,56.8 127.5,56.1 z"
         inkscape:connector-curvature="0"
         style="fill:#5f6368" />
    </g>
    <g
       transform="matrix(2.9000002,0,0,2.9000002,1547.2032,-562.83017)"
       id="layer1-3"
       inkscape:label="Layer 1">
      <g
         inkscape:label="Layer 1"
         id="layer1-1"
         transform="matrix(0.03978217,0,0,0.03978217,-658.51488,317.36166)">
        <path
           style="fill:#0089d6;fill-opacity:1;stroke-width:0.28222221"
           d="m -259.18627,274.57516 c 63.5635,-11.22863 116.06332,-20.52032 116.66629,-20.64819 l 1.09632,-0.2325 -60.01021,-71.38026 c -33.00559,-39.25915 -60.01018,-71.53249 -60.01018,-71.71853 0,-0.35223 61.96561,-170.992127 62.31396,-171.599207 0.11647,-0.20297 42.28595,72.60148 102.221586,176.482797 56.11284,97.25555 102.3751556,177.4431 102.8051496,178.19452 l 0.78184,1.36624 -190.7173956,-0.0246 -190.71736,-0.0245 115.57,-20.4157 z m 731.37889,-17.26291 c -29.03093,-1.86128 -45.91544,-18.39214 -50.38974,-49.33422 -1.19021,-8.2311 -1.19476,-8.44466 -1.31656,-61.88078 l -0.11789,-51.717227 h 12.84834 12.8483 l 0.10118,50.023887 c 0.0912,45.08514 0.14842,50.37131 0.57946,53.54292 1.74935,12.87168 5.23201,21.5276 11.16124,27.74067 4.74528,4.97242 10.30038,7.8839 17.99011,9.42882 3.62783,0.72884 13.94813,0.7303 17.25569,0.003 7.79588,-1.7156 14.0442,-5.10811 19.55617,-10.61799 6.28249,-6.28012 10.93015,-15.1903 13.17899,-25.26595 l 0.75793,-3.39586 0.0844,-50.44723 0.0844,-50.447217 h 13.11732 13.11735 v 79.304447 79.30444 h -12.98222 -12.98222 v -12.5824 c 0,-8.54933 -0.0937,-12.55118 -0.29222,-12.485 -0.16069,0.0536 -0.82744,1.07357 -1.48166,2.26667 -4.47373,8.15896 -11.92745,15.62029 -20.09501,20.1155 -9.79024,5.38827 -19.60858,7.30422 -33.02333,6.44412 z m 294.66636,-0.12816 c -10.24795,-0.7703 -21.03846,-4.29359 -29.85796,-9.74908 -18.58873,-11.49853 -29.58761,-30.45184 -32.80805,-56.53499 -1.11441,-9.02575 -1.24835,-21.14964 -0.3184,-28.81907 2.07786,-17.13682 8.81185,-33.95976 18.40106,-45.96982 2.45824,-3.07883 8.03495,-8.65553 11.11365,-11.11361 8.31379,-6.637877 18.03843,-11.279617 28.36334,-13.538327 6.01579,-1.31603 16.60968,-1.93394 23.00111,-1.34159 16.05576,1.48805 30.77105,9.04765 40.77267,20.945887 10.1615,12.08847 15.74681,28.98006 16.46007,49.77987 0.11179,3.25966 0.13889,8.97466 0.0603,12.7 l -0.143,6.77333 -56.23278,0.0712 -56.23278,0.0712 v 2.5094 c 0,7.63915 1.85722,16.33991 5.06795,23.74265 2.76877,6.38373 7.53485,13.35462 11.43714,16.72802 8.00131,6.91687 17.79386,11.05701 28.50936,12.05334 3.97318,0.3694 14.09889,-0.0195 18.62666,-0.7152 12.91802,-1.98524 25.19946,-7.052 35.11745,-14.48783 1.16688,-0.87486 2.28357,-1.69223 2.48152,-1.81635 0.28968,-0.18164 0.35814,2.10408 0.35081,11.71222 l -0.009,11.93792 -2.65743,1.64355 c -11.21971,6.93911 -24.07305,11.39481 -37.68211,13.06277 -4.06135,0.49775 -18.96443,0.71949 -23.82142,0.35441 z m 48.93919,-100.68528 c 0,-12.79609 -5.39245,-27.01096 -13.02337,-34.3305 -5.44587,-5.22367 -12.02921,-8.41603 -19.85552,-9.62822 -3.70264,-0.5735 -11.50631,-0.35262 -15.41004,0.43617 -8.25234,1.66748 -15.07811,5.29536 -21.03154,11.17821 -6.26561,6.19133 -10.96323,13.71122 -13.91756,22.27909 -1.06234,3.08091 -2.30488,8.13901 -2.69056,10.95257 l -0.18376,1.34056 h 43.05616 43.05619 z M 53.010852,253.20058 c 0.06587,-0.19403 19.161194,-50.3586 42.434086,-111.47682 l 42.314342,-111.124037 13.59583,-8.5e-4 13.5958,-8.4e-4 1.12805,2.89278 c 3.4472,8.84008 84.71032,219.821587 84.71032,219.931197 0,0.0722 -6.50875,0.13039 -14.46389,0.12923 l -14.46389,-0.003 -11.71222,-31.18282 -11.71222,-31.18281 -47.15885,-5.7e-4 -47.15886,-5.6e-4 -0.40982,1.05833 c -0.22538,0.58208 -5.229376,14.61335 -11.120031,31.18062 l -10.710221,30.12225 -14.494087,0.005 c -11.4727,0.004 -14.469109,-0.0686 -14.374339,-0.34784 z M 189.82928,167.38571 c 0,-0.0494 -7.88187,-21.41719 -17.51527,-47.48389 -18.02243,-48.766297 -19.03061,-51.700447 -20.45454,-59.529577 -0.66771,-3.67122 -1.00556,-3.77324 -1.40188,-0.42333 -0.2833,2.39448 -1.51167,7.75245 -2.45866,10.72445 -0.46988,1.47461 -8.58577,23.74972 -18.03533,49.500237 -9.44954,25.75052 -17.18099,46.92777 -17.18099,47.06055 0,0.13279 17.33551,0.24143 38.52334,0.24143 21.18783,0 38.52333,-0.0404 38.52333,-0.0899 z m 69.70889,82.10639 v -4.06127 l 46.98461,-64.58929 46.98461,-64.5893 -42.53961,-0.14111 -42.53961,-0.14111 -0.0739,-10.795 -0.0739,-10.794997 h 61.52781 61.5278 v 3.64606 3.646057 l -46.99,64.94153 c -25.8445,35.71785 -46.99,65.00162 -46.99,65.07506 0,0.0734 20.8915,0.13352 46.42555,0.13352 h 46.42556 v 10.86555 10.86556 h -65.33447 -65.33445 z m 344.78149,3.8731 c -0.10349,-0.10346 -0.18816,-35.91746 -0.18816,-79.58666 V 94.380023 h 12.84112 12.84111 v 16.368887 c 0,9.00289 0.10947,16.36889 0.2433,16.36889 0.13383,0 0.75881,-1.47368 1.38884,-3.27484 2.88711,-8.2536 7.89393,-15.96572 14.34443,-22.09509 5.81095,-5.521657 12.45235,-8.823637 20.28898,-10.087287 2.20134,-0.35497 4.064,-0.42274 8.46667,-0.30806 5.52924,0.14402 8.42001,0.54819 11.78278,1.64738 l 1.05833,0.34594 v 13.328937 13.32893 l -3.03389,-1.51868 c -5.3592,-2.68267 -10.64714,-3.74429 -17.00389,-3.41375 -4.13707,0.21513 -6.85252,0.74636 -10.16,1.98766 -6.80519,2.55399 -12.32518,7.06198 -16.18228,13.2155 -5.58374,8.90817 -9.56612,20.35873 -10.7407,30.88287 -0.21079,1.88864 -0.33508,17.27019 -0.38459,47.59327 l -0.0731,44.80278 H 617.1582 c -6.95771,0 -12.73506,-0.0847 -12.83852,-0.18816 z M -488.0685,252.80762 c 0,-0.1005 28.27652,-49.18632 62.83671,-109.07964 l 62.8367,-108.896937 73.22891,-61.45385 c 40.2759,-33.79961 73.33737,-61.49516 73.46992,-61.54567 0.13255,-0.0505 -0.39727,1.28299 -1.17738,2.96333 -0.78011,1.68034 -36.56244,78.4296699 -79.51629,170.55406 l -78.09789,167.498887 -56.79034,0.0712 c -31.23468,0.0392 -56.79034,-0.011 -56.79034,-0.11142 z"
           id="path21"
           inkscape:connector-curvature="0" />
      </g>
    </g>
    <g
       id="g1036"
       transform="matrix(0.26458333,0,0,0.26458333,-401.56281,43.869348)">
	<path
   id="path1028"
   d="m 86.4,66.4 c 0,3.7 0.4,6.7 1.1,8.9 0.8,2.2 1.8,4.6 3.2,7.2 0.5,0.8 0.7,1.6 0.7,2.3 0,1 -0.6,2 -1.9,3 L 83.2,92 c -0.9,0.6 -1.8,0.9 -2.6,0.9 -1,0 -2,-0.5 -3,-1.4 C 76.2,90 75,88.4 74,86.8 73,85.1 72,83.2 70.9,80.9 63.1,90.1 53.3,94.7 41.5,94.7 c -8.4,0 -15.1,-2.4 -20,-7.2 -4.9,-4.8 -7.4,-11.2 -7.4,-19.2 0,-8.5 3,-15.4 9.1,-20.6 6.1,-5.2 14.2,-7.8 24.5,-7.8 3.4,0 6.9,0.3 10.6,0.8 3.7,0.5 7.5,1.3 11.5,2.2 V 35.6 C 69.8,28 68.2,22.7 65.1,19.6 61.9,16.5 56.5,15 48.8,15 c -3.5,0 -7.1,0.4 -10.8,1.3 -3.7,0.9 -7.3,2 -10.8,3.4 -1.6,0.7 -2.8,1.1 -3.5,1.3 -0.7,0.2 -1.2,0.3 -1.6,0.3 -1.4,0 -2.1,-1 -2.1,-3.1 V 13.3 C 20,11.7 20.2,10.5 20.7,9.8 21.2,9.1 22.1,8.4 23.5,7.7 27,5.9 31.2,4.4 36.1,3.2 41,1.9 46.2,1.3 51.7,1.3 63.6,1.3 72.3,4 77.9,9.4 83.4,14.8 86.2,23 86.2,34 V 66.4 Z M 45.8,81.6 c 3.3,0 6.7,-0.6 10.3,-1.8 3.6,-1.2 6.8,-3.4 9.5,-6.4 1.6,-1.9 2.8,-4 3.4,-6.4 0.6,-2.4 1,-5.3 1,-8.7 v -4.2 c -2.9,-0.7 -6,-1.3 -9.2,-1.7 -3.2,-0.4 -6.3,-0.6 -9.4,-0.6 -6.7,0 -11.6,1.3 -14.9,4 -3.3,2.7 -4.9,6.5 -4.9,11.5 0,4.7 1.2,8.2 3.7,10.6 2.4,2.5 5.9,3.7 10.5,3.7 z m 80.3,10.8 c -1.8,0 -3,-0.3 -3.8,-1 -0.8,-0.6 -1.5,-2 -2.1,-3.9 L 96.7,10.2 c -0.6,-2 -0.9,-3.3 -0.9,-4 0,-1.6 0.8,-2.5 2.4,-2.5 h 9.8 c 1.9,0 3.2,0.3 3.9,1 0.8,0.6 1.4,2 2,3.9 l 16.8,66.2 15.6,-66.2 c 0.5,-2 1.1,-3.3 1.9,-3.9 0.8,-0.6 2.2,-1 4,-1 h 8 c 1.9,0 3.2,0.3 4,1 0.8,0.6 1.5,2 1.9,3.9 l 15.8,67 17.3,-67 c 0.6,-2 1.3,-3.3 2,-3.9 0.8,-0.6 2.1,-1 3.9,-1 h 9.3 c 1.6,0 2.5,0.8 2.5,2.5 0,0.5 -0.1,1 -0.2,1.6 -0.1,0.6 -0.3,1.4 -0.7,2.5 l -24.1,77.3 c -0.6,2 -1.3,3.3 -2.1,3.9 -0.8,0.6 -2.1,1 -3.8,1 h -8.6 c -1.9,0 -3.2,-0.3 -4,-1 -0.8,-0.7 -1.5,-2 -1.9,-4 L 156,23 140.6,87.4 c -0.5,2 -1.1,3.3 -1.9,4 -0.8,0.7 -2.2,1 -4,1 z m 128.5,2.7 c -5.2,0 -10.4,-0.6 -15.4,-1.8 -5,-1.2 -8.9,-2.5 -11.5,-4 -1.6,-0.9 -2.7,-1.9 -3.1,-2.8 -0.4,-0.9 -0.6,-1.9 -0.6,-2.8 v -5.1 c 0,-2.1 0.8,-3.1 2.3,-3.1 0.6,0 1.2,0.1 1.8,0.3 0.6,0.2 1.5,0.6 2.5,1 3.4,1.5 7.1,2.7 11,3.5 4,0.8 7.9,1.2 11.9,1.2 6.3,0 11.2,-1.1 14.6,-3.3 3.4,-2.2 5.2,-5.4 5.2,-9.5 0,-2.8 -0.9,-5.1 -2.7,-7 -1.8,-1.9 -5.2,-3.6 -10.1,-5.2 L 246,52 c -7.3,-2.3 -12.7,-5.7 -16,-10.2 -3.3,-4.4 -5,-9.3 -5,-14.5 0,-4.2 0.9,-7.9 2.7,-11.1 1.8,-3.2 4.2,-6 7.2,-8.2 3,-2.3 6.4,-4 10.4,-5.2 4,-1.2 8.2,-1.7 12.6,-1.7 2.2,0 4.5,0.1 6.7,0.4 2.3,0.3 4.4,0.7 6.5,1.1 2,0.5 3.9,1 5.7,1.6 1.8,0.6 3.2,1.2 4.2,1.8 1.4,0.8 2.4,1.6 3,2.5 0.6,0.8 0.9,1.9 0.9,3.3 v 4.7 c 0,2.1 -0.8,3.2 -2.3,3.2 -0.8,0 -2.1,-0.4 -3.8,-1.2 -5.7,-2.6 -12.1,-3.9 -19.2,-3.9 -5.7,0 -10.2,0.9 -13.3,2.8 -3.1,1.9 -4.7,4.8 -4.7,8.9 0,2.8 1,5.2 3,7.1 2,1.9 5.7,3.8 11,5.5 l 14.2,4.5 c 7.2,2.3 12.4,5.5 15.5,9.6 3.1,4.1 4.6,8.8 4.6,14 0,4.3 -0.9,8.2 -2.6,11.6 -1.8,3.4 -4.2,6.4 -7.3,8.8 -3.1,2.5 -6.8,4.3 -11.1,5.6 -4.5,1.4 -9.2,2.1 -14.3,2.1 z"
   class="st0"
   inkscape:connector-curvature="0"
   style="fill:#252f3e" />

	<g
   id="g1034">
		<path
   id="path1030"
   d="M 273.5,143.7 C 240.6,168 192.8,180.9 151.7,180.9 94.1,180.9 42.2,159.6 3,124.2 c -3.1,-2.8 -0.3,-6.6 3.4,-4.4 42.4,24.6 94.7,39.5 148.8,39.5 36.5,0 76.6,-7.6 113.5,-23.2 5.5,-2.5 10.2,3.6 4.8,7.6 z"
   class="st1"
   inkscape:connector-curvature="0"
   style="clip-rule:evenodd;fill:#ff9900;fill-rule:evenodd" />

		<path
   id="path1032"
   d="m 287.2,128.1 c -4.2,-5.4 -27.8,-2.6 -38.5,-1.3 -3.2,0.4 -3.7,-2.4 -0.8,-4.5 18.8,-13.2 49.7,-9.4 53.3,-5 3.6,4.5 -1,35.4 -18.6,50.2 -2.7,2.3 -5.3,1.1 -4.1,-1.9 4,-9.9 12.9,-32.2 8.7,-37.5 z"
   class="st1"
   inkscape:connector-curvature="0"
   style="clip-rule:evenodd;fill:#ff9900;fill-rule:evenodd" />

	</g>

</g>
    <g
       id="g1065"
       transform="matrix(0.26458333,0,0,0.26458333,-412.64795,285.84593)">
      <path
         id="path1051"
         d="m 96.1,3.2 v 38.3 c 0,4.3 -0.9,8.1 -2.8,11.3 -1.9,3.2 -4.5,5.6 -8,7.3 C 81.8,61.8 77.7,62.6 73,62.6 65.9,62.6 60.2,60.7 56.1,57 52,53.3 49.9,48.2 49.8,41.8 V 3.2 H 64 v 38.9 c 0.2,6.4 3.1,9.6 8.9,9.6 2.9,0 5.1,-0.8 6.6,-2.4 1.5,-1.6 2.3,-4.2 2.3,-7.8 V 3.2 Z M 146,40.4 c 0,6.8 -1.5,12.2 -4.6,16.2 -3,4 -7.2,6.1 -12.3,6.1 -4,0 -7.3,-1.5 -9.9,-4.4 V 78.6 H 105.6 V 18.3 h 12.7 l 0.4,4 c 2.6,-3.2 6,-4.8 10.3,-4.8 5.4,0 9.5,2 12.5,5.9 3,3.9 4.5,9.4 4.5,16.3 z m -13.6,-0.9 c 0,-7.7 -2.3,-11.6 -6.8,-11.6 -3.2,0 -5.4,1.2 -6.4,3.5 v 17.1 c 1.2,2.4 3.4,3.6 6.5,3.6 4.3,0 6.5,-3.7 6.7,-11.2 z M 169,7.4 v 10.8 h 7.2 v 9.4 H 169 v 19.9 c 0,1.6 0.3,2.8 0.9,3.4 0.6,0.6 1.8,1 3.5,1 1.3,0 2.5,-0.1 3.4,-0.2 v 9.7 c -2.4,0.8 -5,1.2 -7.6,1.2 -4.7,0 -8.1,-1.1 -10.3,-3.3 -2.2,-2.2 -3.3,-5.5 -3.3,-10 V 27.7 H 150 v -9.4 h 5.6 V 7.4 Z M 182.6,7 c 0,-1.9 0.7,-3.5 2.1,-4.8 1.4,-1.2 3.2,-1.9 5.4,-1.9 2.2,0 4,0.6 5.4,1.9 1.4,1.2 2.1,2.8 2.1,4.8 0,1.9 -0.7,3.5 -2.1,4.8 -1.4,1.2 -3.2,1.9 -5.4,1.9 -2.2,0 -4,-0.6 -5.4,-1.9 -1.4,-1.3 -2.1,-2.9 -2.1,-4.8 z M 197,61.8 H 183.4 V 18.3 H 197 Z m 22.4,-43.5 0.4,5.1 c 3.1,-3.9 7.2,-5.9 12.4,-5.9 5.5,0 9.2,2.2 11.1,6.6 3,-4.4 7.2,-6.6 12.8,-6.6 8.8,0 13.4,5.3 13.6,16 V 61.8 H 256.1 V 34.3 c 0,-2.2 -0.4,-3.8 -1.1,-4.9 -0.8,-1 -2.1,-1.5 -4.1,-1.5 -2.7,0 -4.7,1.2 -6,3.6 V 61.8 H 231.3 V 34.4 c 0,-2.3 -0.4,-3.9 -1.1,-4.9 -0.7,-1 -2.1,-1.5 -4.1,-1.5 -2.6,0 -4.6,1.2 -6,3.6 V 61.9 H 206.5 V 18.3 Z m 81.3,44.3 c -6.7,0 -12.1,-2 -16.2,-6 -4.1,-4 -6.2,-9.2 -6.2,-15.6 v -1 c 0,-4.5 0.8,-8.4 2.5,-11.8 1.6,-3.4 4.1,-6 7.2,-7.9 3.2,-1.9 6.9,-2.8 11.3,-2.8 6.1,0 10.9,1.9 14.5,5.7 3.5,3.8 5.3,9.1 5.3,15.9 v 5.3 h -27 c 0.5,2.4 1.5,4.4 3.2,5.8 1.6,1.4 3.8,2.1 6.4,2.1 4.3,0 7.6,-1.5 10.1,-4.5 l 6.2,7.3 c -1.7,2.3 -4.1,4.2 -7.2,5.6 -3.2,1.2 -6.5,1.9 -10.1,1.9 z m -1.5,-34.7 c -4,0 -6.3,2.6 -7.1,7.9 h 13.7 v -1 c 0.1,-2.2 -0.5,-3.9 -1.7,-5 -1.1,-1.3 -2.8,-1.9 -4.9,-1.9 z M 349,41.1 h -7.6 V 61.8 H 327.3 V 3.2 h 23.1 c 6.9,0 12.4,1.5 16.3,4.6 3.9,3.1 5.9,7.4 5.9,13.1 0,4.1 -0.8,7.4 -2.5,10.1 -1.7,2.7 -4.2,4.9 -7.7,6.5 l 12.2,23.7 v 0.6 h -15.1 z m -7.7,-10.9 h 8.9 c 2.7,0 4.7,-0.7 6.1,-2.1 1.4,-1.4 2,-3.4 2,-5.9 0,-2.5 -0.7,-4.5 -2.1,-5.9 -1.4,-1.4 -3.4,-2.2 -6,-2.2 h -8.9 z m 38.5,9.4 c 0,-4.3 0.8,-8.2 2.5,-11.6 1.7,-3.4 4.1,-6 7.3,-7.8 3.2,-1.8 6.9,-2.7 11.1,-2.7 6.5,0 11.7,2 15.4,6.1 3.8,4 5.6,9.5 5.6,16.5 v 0.5 c 0,6.8 -1.9,12.2 -5.7,16.2 -3.8,4 -8.9,6 -15.3,6 -6.2,0 -11.2,-1.9 -14.9,-5.6 -3.8,-3.7 -5.8,-8.8 -6.1,-15.1 z m 13.6,0.9 c 0,4 0.6,7 1.9,8.9 1.3,1.9 3.1,2.8 5.6,2.8 4.8,0 7.3,-3.7 7.4,-11.1 v -1.4 c 0,-7.8 -2.5,-11.7 -7.5,-11.7 -4.5,0 -7,3.4 -7.4,10.1 z m 76.1,-0.1 c 0,7.1 -1.5,12.6 -4.4,16.5 -3,3.8 -7.1,5.8 -12.5,5.8 -4.4,0 -8,-1.8 -10.7,-5.3 l -0.6,4.5 H 429.1 V 0 h 13.6 v 21.8 c 2.5,-2.9 5.8,-4.3 9.8,-4.3 5.4,0 9.6,1.9 12.6,5.8 3,3.9 4.4,9.4 4.4,16.4 z m -13.6,-0.9 c 0,-4.2 -0.6,-7.2 -1.7,-8.9 -1.1,-1.8 -2.8,-2.7 -5.1,-2.7 -3.1,0 -5.2,1.2 -6.4,3.5 v 17.3 c 1.2,2.3 3.3,3.5 6.4,3.5 3.2,0 5.2,-1.6 6.1,-4.7 0.5,-1.5 0.7,-4.2 0.7,-8 z m 19.1,0.1 c 0,-4.3 0.8,-8.2 2.5,-11.6 1.7,-3.4 4.1,-6 7.3,-7.8 3.2,-1.8 6.9,-2.7 11.1,-2.7 6.5,0 11.7,2 15.4,6.1 3.8,4 5.6,9.5 5.6,16.5 v 0.5 c 0,6.8 -1.9,12.2 -5.7,16.2 -3.8,4 -8.9,6 -15.3,6 -6.2,0 -11.2,-1.9 -14.9,-5.6 -3.8,-3.7 -5.8,-8.8 -6.1,-15.1 z m 13.5,0.9 c 0,4 0.6,7 1.9,8.9 1.3,1.9 3.1,2.8 5.6,2.8 4.8,0 7.3,-3.7 7.4,-11.1 v -1.4 c 0,-7.8 -2.5,-11.7 -7.5,-11.7 -4.5,0 -7,3.4 -7.4,10.1 z M 540,7.4 v 10.8 h 7.2 v 9.4 H 540 v 19.9 c 0,1.6 0.3,2.8 0.9,3.4 0.6,0.6 1.8,1 3.5,1 1.3,0 2.5,-0.1 3.4,-0.2 v 9.7 c -2.4,0.8 -5,1.2 -7.6,1.2 -4.7,0 -8.1,-1.1 -10.3,-3.3 -2.2,-2.2 -3.3,-5.5 -3.3,-10 V 27.7 H 521 v -9.4 h 5.6 V 7.4 Z"
         inkscape:connector-curvature="0"
         style="fill:#ffffff" />
      <circle
         id="circle1053"
         r="14.7"
         cy="46.900002"
         cx="14.7"
         style="fill:#3bd771" />
    </g>
    <g
       id="g1099"
       transform="matrix(0.31079088,0,0,0.31079088,-390.64708,124.15256)"
       style="fill:none;fill-rule:evenodd">
      <path
         id="path1067"
         d="m 38.617,173.984 v -16.362 c 0,-2.15 1.344,-3.877 3.57,-3.877 h 0.616 c 2.225,0 3.563,1.729 3.563,3.877 v 34.447 c 0,8.4 -4.15,15.084 -11.382,19.342 a 21.374,21.374 0 0 1 -10.945,2.985 h -1.537 c -8.402,0 -15.077,-4.153 -19.342,-11.38 A 21.314,21.314 0 0 1 0.176,192.069 v -1.535 c 0,-8.403 4.152,-15.083 11.378,-19.349 A 21.298,21.298 0 0 1 22.502,168.2 h 1.537 c 5.686,0 10.51,2.204 14.578,5.784 z M 7.924,191.3 c 0,6.068 2.941,10.63 8.258,13.54 2.15,1.176 4.484,1.808 6.937,1.808 5.956,0 10.374,-2.81 13.421,-7.857 1.417,-2.348 2.077,-4.917 2.077,-7.648 0,-5.26 -2.49,-9.365 -6.729,-12.414 -2.57,-1.848 -5.463,-2.775 -8.618,-2.775 -6.492,0 -11.164,3.28 -13.968,9.106 -0.946,1.97 -1.378,4.061 -1.378,6.24 z m 65.324,-23.1 h 1.074 c 8.978,0 15.806,4.355 20.133,12.192 1.73,3.135 2.656,6.557 2.656,10.142 v 1.535 c 0,8.4 -4.142,15.093 -11.385,19.343 -3.353,1.967 -7.057,2.984 -10.943,2.984 h -1.535 c -8.402,0 -15.079,-4.153 -19.342,-11.38 a 21.316,21.316 0 0 1 -2.987,-10.947 v -1.535 c 0,-8.404 4.169,-15.062 11.377,-19.347 3.351,-1.991 7.058,-2.987 10.952,-2.987 z m -14.58,23.1 c 0,5.89 2.89,10.223 7.865,13.27 2.336,1.43 4.909,2.078 7.638,2.078 5.82,0 10.122,-2.951 13.116,-7.863 1.428,-2.342 2.074,-4.915 2.074,-7.642 0,-5.477 -2.638,-9.661 -7.148,-12.693 -2.471,-1.663 -5.222,-2.496 -8.198,-2.496 -6.492,0 -11.164,3.28 -13.967,9.106 -0.948,1.97 -1.38,4.061 -1.38,6.24 z m 70.656,-14.727 c -1.17,-0.548 -3.36,-0.73 -4.624,-0.778 -6.474,-0.244 -11.158,3.402 -13.906,9.113 -0.949,1.97 -1.382,4.055 -1.382,6.235 0,6.637 3.485,11.284 9.409,14.117 2.164,1.034 4.958,1.23 7.323,1.23 2.08,0 5.02,-1.274 6.866,-2.151 l 0.32,-0.152 h 1.433 l 0.158,0.032 c 1.762,0.367 3.092,1.484 3.092,3.38 v 0.767 c 0,4.718 -8.622,5.798 -11.912,6.028 -11.61,0.803 -20.293,-5.573 -23.603,-16.647 -0.575,-1.923 -0.834,-3.833 -0.834,-5.837 v -1.533 c 0,-8.403 4.17,-15.059 11.377,-19.34 3.351,-1.99 7.057,-2.99 10.95,-2.99 h 1.536 c 4.13,0 7.934,1.173 11.344,3.502 l 0.28,0.194 0.177,0.292 c 0.368,0.61 0.685,1.316 0.685,2.042 v 0.767 c 0,1.978 -1.48,3.042 -3.266,3.386 l -0.148,0.026 h -0.458 c -1.156,0 -3.785,-1.197 -4.817,-1.683 z m 25.134,5.247 c 3.01,-3.014 6.03,-6.022 9.085,-8.986 0.851,-0.827 4.074,-4.327 5.343,-4.327 h 1.388 l 0.158,0.033 c 1.768,0.367 3.092,1.486 3.092,3.386 v 0.766 c 0,1.296 -1.518,2.802 -2.355,3.689 -1.78,1.887 -3.654,3.712 -5.476,5.56 l -9.362,9.504 c 4.031,4.04 8.058,8.083 12.056,12.154 a 313.304,313.304 0 0 1 3.301,3.396 c 0.385,0.405 0.953,0.909 1.276,1.47 0.347,0.526 0.56,1.119 0.56,1.752 v 0.8 l -0.045,0.185 c -0.435,1.768 -1.557,3.194 -3.516,3.194 h -0.617 c -1.282,0 -2.73,-1.45 -3.608,-2.279 -1.81,-1.706 -3.557,-3.5 -5.331,-5.243 l -5.949,-5.84 v 9.334 c 0,2.15 -1.346,3.878 -3.569,3.878 h -0.61 c -2.226,0 -3.57,-1.728 -3.57,-3.878 v -52.596 c 0,-2.15 1.345,-3.87 3.57,-3.87 h 0.61 c 2.223,0 3.569,1.72 3.569,3.87 z m 96.577,-13.313 h 0.77 c 2.324,0 3.875,1.566 3.875,3.877 0,3.208 -3.067,4.029 -5.72,4.029 -3.48,0 -6.803,2.107 -9.202,4.47 -2.991,2.949 -4.3,6.726 -4.3,10.878 v 18.759 c 0,2.15 -1.343,3.876 -3.57,3.876 h -0.612 c -2.227,0 -3.569,-1.725 -3.569,-3.876 v -19.836 c 0,-7.617 3.708,-13.835 9.89,-18.196 3.691,-2.605 7.919,-3.98 12.438,-3.98 z m -55.074,37.176 c 2.82,0.985 6.035,0.844 8.928,0.34 1.48,-0.629 5.264,-2.28 6.656,-2.038 l 0.217,0.037 0.2,0.098 c 0.85,0.412 1.661,0.995 2.095,1.86 1.014,2.027 0.527,4.065 -1.465,5.216 l -0.663,0.383 c -7.35,4.242 -15.168,3.654 -22.495,-0.308 -3.503,-1.894 -6.183,-4.705 -8.16,-8.132 l -0.462,-0.801 c -4.719,-8.172 -4.082,-16.768 1.24,-24.539 1.837,-2.686 4.238,-4.761 7.045,-6.384 l 1.062,-0.613 c 6.922,-3.996 14.341,-3.722 21.45,-0.215 3.823,1.886 6.92,4.697 9.054,8.394 l 0.384,0.666 c 1.55,2.686 -0.458,5.026 -2.531,6.626 -2.406,1.856 -4.835,4.09 -7.141,6.08 -5.142,4.439 -10.276,8.888 -15.414,13.33 z m -6.655,-4.674 c 5.75,-4.93 11.502,-9.865 17.237,-14.816 1.96,-1.69 4.109,-3.444 6.053,-5.221 -1.56,-1.966 -4.166,-3.383 -6.38,-4.228 -4.47,-1.703 -8.877,-1.131 -12.976,1.235 -5.365,3.098 -7.65,8.031 -7.45,14.17 0.08,2.418 0.73,4.748 2.013,6.805 0.452,0.725 0.957,1.406 1.503,2.055 z M 147.488,45.732 h 22.866 v 23.375 h 11.561 c 5.34,0 10.831,-0.951 15.887,-2.664 2.485,-0.843 5.273,-2.015 7.724,-3.49 -3.228,-4.214 -4.876,-9.535 -5.36,-14.78 -0.66,-7.135 0.78,-16.421 5.608,-22.005 l 2.404,-2.78 2.864,2.303 c 7.211,5.793 13.276,13.889 14.345,23.118 8.683,-2.554 18.878,-1.95 26.531,2.467 l 3.14,1.812 -1.652,3.226 C 246.933,68.946 233.4,72.86 220.17,72.167 c -19.797,49.309 -62.898,72.653 -115.157,72.653 -27,0 -51.77,-10.093 -65.876,-34.047 l -0.231,-0.39 -2.055,-4.182 C 32.083,95.657 30.499,84.106 31.573,72.564 l 0.323,-3.457 H 51.45 V 45.732 H 74.315 V 22.866 h 45.733 V 0 h 27.44 v 45.732"
         inkscape:connector-curvature="0"
         style="fill:#364548" />
      <path
         id="path1069"
         d="m 221.57,54.38 c 1.533,-11.916 -7.384,-21.275 -12.914,-25.719 -6.373,7.368 -7.363,26.678 2.635,34.808 -5.58,4.956 -17.337,9.448 -29.376,9.448 H 35.37 c -1.17,12.567 1.036,24.14 6.075,34.045 l 1.667,3.05 a 56.536,56.536 0 0 0 3.455,5.184 c 6.025,0.387 11.58,0.52 16.662,0.408 h 0.002 c 9.987,-0.22 18.136,-1.4 24.312,-3.54 a 1.761,1.761 0 0 1 1.153,3.326 c -0.822,0.286 -1.678,0.552 -2.562,0.805 h -0.003 c -4.863,1.389 -10.078,2.323 -16.806,2.738 0.4,0.007 -0.416,0.06 -0.418,0.06 -0.229,0.015 -0.517,0.048 -0.747,0.06 -2.648,0.149 -5.506,0.18 -8.428,0.18 -3.196,0 -6.343,-0.06 -9.862,-0.24 l -0.09,0.06 c 12.21,13.724 31.302,21.955 55.234,21.955 50.648,0 93.608,-22.452 112.632,-72.857 13.496,1.385 26.467,-2.057 32.367,-13.575 -9.398,-5.423 -21.484,-3.694 -28.443,-0.196"
         inkscape:connector-curvature="0"
         style="fill:#22a0c8" />
      <path
         id="path1071"
         d="m 221.57,54.38 c 1.533,-11.916 -7.384,-21.275 -12.914,-25.719 -6.373,7.368 -7.363,26.678 2.635,34.808 -5.58,4.956 -17.337,9.448 -29.376,9.448 H 44.048 c -0.598,19.246 6.544,33.855 19.18,42.687 h 0.003 c 9.987,-0.22 18.136,-1.4 24.312,-3.54 a 1.761,1.761 0 0 1 1.153,3.326 c -0.822,0.286 -1.678,0.552 -2.562,0.805 h -0.003 c -4.863,1.389 -10.526,2.443 -17.254,2.858 -0.002,0 -0.163,-0.155 -0.165,-0.155 17.237,8.842 42.23,8.81 70.885,-2.197 32.13,-12.344 62.029,-35.86 82.89,-62.757 -0.314,0.142 -0.62,0.287 -0.917,0.436"
         inkscape:connector-curvature="0"
         style="fill:#37b1d9" />
      <path
         id="path1073"
         d="m 35.645,88.186 c 0.91,6.732 2.88,13.035 5.8,18.776 l 1.667,3.05 a 56.432,56.432 0 0 0 3.455,5.184 c 6.026,0.387 11.581,0.52 16.664,0.408 9.987,-0.22 18.136,-1.4 24.312,-3.54 a 1.761,1.761 0 0 1 1.153,3.326 c -0.822,0.286 -1.678,0.552 -2.562,0.805 h -0.003 c -4.863,1.389 -10.496,2.383 -17.224,2.799 -0.231,0.014 -0.634,0.017 -0.867,0.03 -2.646,0.148 -5.475,0.239 -8.398,0.239 -3.195,0 -6.463,-0.061 -9.98,-0.24 12.21,13.724 31.42,21.985 55.352,21.985 43.36,0 81.084,-16.458 102.979,-52.822 H 35.645"
         inkscape:connector-curvature="0"
         style="fill:#1b81a5" />
      <path
         id="path1075"
         d="m 45.367,88.186 c 2.592,11.82 8.821,21.099 17.864,27.418 9.987,-0.22 18.136,-1.4 24.312,-3.54 a 1.761,1.761 0 0 1 1.153,3.326 c -0.822,0.286 -1.678,0.552 -2.562,0.805 h -0.003 c -4.863,1.389 -10.615,2.383 -17.344,2.799 17.236,8.84 42.157,8.713 70.81,-2.293 17.334,-6.66 34.017,-16.574 48.984,-28.515 H 45.367"
         inkscape:connector-curvature="0"
         style="fill:#1d91b4" />
      <path
         id="path1077"
         d="M 55.26,49.543 H 75.078 V 69.361 H 55.26 Z m 1.651,1.652 h 1.564 V 67.71 h -1.564 z m 2.94,0 h 1.627 V 67.71 H 59.852 V 51.195 Z m 3.002,0 H 64.48 V 67.71 h -1.627 z m 3.004,0 h 1.626 V 67.71 h -1.626 z m 3.003,0 h 1.626 V 67.71 H 68.86 Z m 3.002,0 h 1.565 V 67.71 H 71.862 Z M 78.126,26.677 H 97.945 V 46.494 H 78.125 V 26.677 Z m 1.652,1.652 h 1.563 v 16.514 h -1.563 z m 2.94,0 h 1.626 V 44.843 H 82.719 V 28.329 Z m 3.002,0 h 1.626 V 44.843 H 85.72 Z m 3.003,0 h 1.626 v 16.514 h -1.626 z m 3.003,0 h 1.627 v 16.514 h -1.627 z m 3.002,0 h 1.566 v 16.514 h -1.566 z"
         inkscape:connector-curvature="0"
         style="fill:#23a3c2" />
      <path
         id="path1079"
         d="M 78.126,49.543 H 97.945 V 69.361 H 78.125 V 49.543 Z m 1.652,1.652 h 1.563 V 67.71 h -1.563 z m 2.94,0 h 1.626 V 67.71 H 82.719 V 51.195 Z m 3.002,0 h 1.626 V 67.71 H 85.72 Z m 3.003,0 h 1.626 V 67.71 h -1.626 z m 3.003,0 h 1.627 V 67.71 h -1.627 z m 3.002,0 h 1.566 V 67.71 h -1.566 z"
         inkscape:connector-curvature="0"
         style="fill:#34bbde" />
      <path
         id="path1081"
         d="m 100.993,49.543 h 19.818 v 19.818 h -19.818 z m 1.651,1.652 h 1.563 V 67.71 h -1.563 z m 2.94,0 h 1.626 V 67.71 h -1.626 z m 3.003,0 h 1.626 V 67.71 h -1.626 z m 3.003,0 h 1.626 V 67.71 h -1.626 z m 3.002,0 h 1.628 V 67.71 h -1.628 z m 3.003,0 h 1.564 V 67.71 h -1.564 z"
         inkscape:connector-curvature="0"
         style="fill:#23a3c2" />
      <path
         id="path1083"
         d="m 100.993,26.677 h 19.818 v 19.817 h -19.818 z m 1.651,1.652 h 1.563 v 16.514 h -1.563 z m 2.94,0 h 1.626 v 16.514 h -1.626 z m 3.003,0 h 1.626 v 16.514 h -1.626 z m 3.003,0 h 1.626 v 16.514 h -1.626 z m 3.002,0 h 1.628 v 16.514 h -1.628 z m 3.003,0 h 1.564 v 16.514 h -1.564 z m 6.264,21.214 h 19.818 v 19.818 h -19.818 z m 1.652,1.652 h 1.563 V 67.71 h -1.563 z m 2.94,0 h 1.626 V 67.71 h -1.626 z m 3.002,0 h 1.626 V 67.71 h -1.626 z m 3.003,0 h 1.627 V 67.71 h -1.627 z m 3.003,0 h 1.627 V 67.71 h -1.627 z m 3.003,0 h 1.564 V 67.71 h -1.564 z"
         inkscape:connector-curvature="0"
         style="fill:#34bbde" />
      <path
         id="path1085"
         d="m 123.859,26.677 h 19.818 v 19.817 h -19.818 z m 1.652,1.652 h 1.563 v 16.514 h -1.563 z m 2.94,0 h 1.626 v 16.514 h -1.626 z m 3.002,0 h 1.626 v 16.514 h -1.626 z m 3.003,0 h 1.627 v 16.514 h -1.627 z m 3.003,0 h 1.627 v 16.514 h -1.627 z m 3.003,0 h 1.564 v 16.514 h -1.564 z"
         inkscape:connector-curvature="0"
         style="fill:#23a3c2" />
      <path
         id="path1087"
         d="m 123.859,3.81 h 19.818 v 19.82 h -19.818 z m 1.652,1.651 h 1.563 v 16.516 h -1.563 V 5.46 Z m 2.94,0 h 1.626 v 16.516 h -1.626 V 5.46 Z m 3.002,0 h 1.626 v 16.516 h -1.626 V 5.46 Z m 3.003,0 h 1.627 v 16.516 h -1.627 V 5.46 Z m 3.003,0 h 1.627 v 16.516 h -1.627 V 5.46 Z m 3.003,0 h 1.564 v 16.516 h -1.564 V 5.46 Z"
         inkscape:connector-curvature="0"
         style="fill:#34bbde" />
      <path
         id="path1089"
         d="m 146.725,49.543 h 19.818 v 19.818 h -19.818 z m 1.65,1.652 h 1.565 V 67.71 h -1.564 V 51.195 Z m 2.94,0 h 1.627 V 67.71 h -1.626 V 51.195 Z m 3.004,0 h 1.627 V 67.71 h -1.627 z m 3.002,0 h 1.627 V 67.71 h -1.627 z m 3.004,0 h 1.626 V 67.71 h -1.626 z m 3.002,0 h 1.564 V 67.71 h -1.564 z"
         inkscape:connector-curvature="0"
         style="fill:#23a3c2" />
      <path
         id="path1091"
         d="m 96.704,101.492 a 5.468,5.468 0 1 1 -0.002,10.935 5.468,5.468 0 0 1 0.002,-10.935"
         inkscape:connector-curvature="0"
         style="fill:#d3ecec" />
      <path
         id="path1093"
         d="m 96.704,103.043 c 0.5,0 0.977,0.094 1.417,0.265 a 1.598,1.598 0 0 0 0.798,2.98 c 0.605,0 1.13,-0.335 1.402,-0.831 a 3.915,3.915 0 1 1 -3.617,-2.414 M 0,90.162 h 254.327 c -5.537,-1.404 -17.52,-3.302 -15.544,-10.56 -10.07,11.652 -34.353,8.175 -40.482,2.43 -6.824,9.898 -46.554,6.135 -49.325,-1.576 -8.556,10.041 -35.067,10.041 -43.623,0 -2.773,7.711 -42.502,11.474 -49.327,1.575 -6.128,5.746 -30.41,9.223 -40.48,-2.428 C 17.522,86.86 5.539,88.758 0,90.163"
         inkscape:connector-curvature="0"
         style="fill:#364548" />
      <path
         id="path1095"
         d="m 111.237,140.89 c -13.54,-6.425 -20.971,-15.16 -25.106,-24.694 -5.03,1.435 -11.075,2.353 -18.1,2.747 -2.646,0.148 -5.43,0.224 -8.35,0.224 -3.368,0 -6.917,-0.1 -10.643,-0.297 12.417,12.41 27.692,21.964 55.976,22.138 2.088,0 4.16,-0.04 6.223,-0.118"
         inkscape:connector-curvature="0"
         style="fill:#bdd9d7" />
      <path
         id="path1097"
         d="m 91.16,124.994 c -1.873,-2.543 -3.69,-5.739 -5.026,-8.8 -5.03,1.437 -11.077,2.355 -18.103,2.75 4.826,2.619 11.727,5.046 23.13,6.05"
         inkscape:connector-curvature="0"
         style="fill:#d3ecec" />
    </g>
    <g
       id="g1608"
       transform="matrix(1.3792928,0,0,1.3792928,-217.33631,-63.012707)">
      <g
         id="g1550">
	<path
   id="path1544"
   d="m 0,24.108 v 11.783 c 0,0.974 0.314,1.868 0.835,2.608 H 59.164 C 59.686,37.76 60,36.865 60,35.892 V 24.108 C 60,23.134 59.686,22.24 59.165,21.5 H 0.835 C 0.314,22.24 0,23.135 0,24.108 Z M 52,30.5 c 0.552,0 1,0.448 1,1 0,0.552 -0.448,1 -1,1 -0.552,0 -1,-0.448 -1,-1 0,-0.552 0.448,-1 1,-1 z m -2,-3 c 0.552,0 1,0.448 1,1 0,0.552 -0.448,1 -1,1 -0.552,0 -1,-0.448 -1,-1 0,-0.552 0.448,-1 1,-1 z m -2,3 c 0.552,0 1,0.448 1,1 0,0.552 -0.448,1 -1,1 -0.552,0 -1,-0.448 -1,-1 0,-0.552 0.448,-1 1,-1 z m -2,-3 c 0.552,0 1,0.448 1,1 0,0.552 -0.448,1 -1,1 -0.552,0 -1,-0.448 -1,-1 0,-0.552 0.448,-1 1,-1 z m -2,3 c 0.552,0 1,0.448 1,1 0,0.552 -0.448,1 -1,1 -0.552,0 -1,-0.448 -1,-1 0,-0.552 0.448,-1 1,-1 z m -2,-3 c 0.552,0 1,0.448 1,1 0,0.552 -0.448,1 -1,1 -0.552,0 -1,-0.448 -1,-1 0,-0.552 0.448,-1 1,-1 z m -2,3 c 0.552,0 1,0.448 1,1 0,0.552 -0.448,1 -1,1 -0.552,0 -1,-0.448 -1,-1 0,-0.552 0.448,-1 1,-1 z m -2,-3 c 0.552,0 1,0.448 1,1 0,0.552 -0.448,1 -1,1 -0.552,0 -1,-0.448 -1,-1 0,-0.552 0.448,-1 1,-1 z m -2,3 c 0.552,0 1,0.448 1,1 0,0.552 -0.448,1 -1,1 -0.552,0 -1,-0.448 -1,-1 0,-0.552 0.448,-1 1,-1 z m -2,-3 c 0.552,0 1,0.448 1,1 0,0.552 -0.448,1 -1,1 -0.552,0 -1,-0.448 -1,-1 0,-0.552 0.448,-1 1,-1 z m -23.5,-2 c 2.481,0 4.5,2.019 4.5,4.5 0,2.481 -2.019,4.5 -4.5,4.5 C 8.019,34.5 6,32.481 6,30 6,27.519 8.019,25.5 10.5,25.5 Z"
   inkscape:connector-curvature="0" />

	<path
   id="path1546"
   d="M 59.165,19.5 C 59.686,18.76 60,17.865 60,16.892 V 5.108 C 60,2.567 57.933,0.5 55.392,0.5 H 4.608 C 2.067,0.5 0,2.567 0,5.108 v 11.783 c 0,0.974 0.314,1.868 0.835,2.608 h 58.33 z M 52,11.5 c 0.552,0 1,0.448 1,1 0,0.552 -0.448,1 -1,1 -0.552,0 -1,-0.448 -1,-1 0,-0.552 0.448,-1 1,-1 z m -2,-3 c 0.552,0 1,0.448 1,1 0,0.552 -0.448,1 -1,1 -0.552,0 -1,-0.448 -1,-1 0,-0.552 0.448,-1 1,-1 z m -2,3 c 0.552,0 1,0.448 1,1 0,0.552 -0.448,1 -1,1 -0.552,0 -1,-0.448 -1,-1 0,-0.552 0.448,-1 1,-1 z m -2,-3 c 0.552,0 1,0.448 1,1 0,0.552 -0.448,1 -1,1 -0.552,0 -1,-0.448 -1,-1 0,-0.552 0.448,-1 1,-1 z m -2,3 c 0.552,0 1,0.448 1,1 0,0.552 -0.448,1 -1,1 -0.552,0 -1,-0.448 -1,-1 0,-0.552 0.448,-1 1,-1 z m -2,-3 c 0.552,0 1,0.448 1,1 0,0.552 -0.448,1 -1,1 -0.552,0 -1,-0.448 -1,-1 0,-0.552 0.448,-1 1,-1 z m -2,3 c 0.552,0 1,0.448 1,1 0,0.552 -0.448,1 -1,1 -0.552,0 -1,-0.448 -1,-1 0,-0.552 0.448,-1 1,-1 z m -2,-3 c 0.552,0 1,0.448 1,1 0,0.552 -0.448,1 -1,1 -0.552,0 -1,-0.448 -1,-1 0,-0.552 0.448,-1 1,-1 z m -2,3 c 0.552,0 1,0.448 1,1 0,0.552 -0.448,1 -1,1 -0.552,0 -1,-0.448 -1,-1 0,-0.552 0.448,-1 1,-1 z m -2,-3 c 0.552,0 1,0.448 1,1 0,0.552 -0.448,1 -1,1 -0.552,0 -1,-0.448 -1,-1 0,-0.552 0.448,-1 1,-1 z m -23.5,-2 c 2.481,0 4.5,2.019 4.5,4.5 0,2.481 -2.019,4.5 -4.5,4.5 C 8.019,15.5 6,13.481 6,11 6,8.519 8.019,6.5 10.5,6.5 Z"
   inkscape:connector-curvature="0" />

	<path
   id="path1548"
   d="M 0.835,40.5 C 0.314,41.24 0,42.135 0,43.108 V 54.891 C 0,57.433 2.067,59.5 4.608,59.5 h 50.783 c 2.541,0 4.608,-2.067 4.608,-4.608 V 43.108 c 0,-0.974 -0.314,-1.868 -0.835,-2.608 z m 9.665,13 C 8.019,53.5 6,51.481 6,49 c 0,-2.481 2.019,-4.5 4.5,-4.5 2.481,0 4.5,2.019 4.5,4.5 0,2.481 -2.019,4.5 -4.5,4.5 z m 23.5,-5 c -0.552,0 -1,-0.448 -1,-1 0,-0.552 0.448,-1 1,-1 0.552,0 1,0.448 1,1 0,0.552 -0.448,1 -1,1 z m 2,3 c -0.552,0 -1,-0.448 -1,-1 0,-0.552 0.448,-1 1,-1 0.552,0 1,0.448 1,1 0,0.552 -0.448,1 -1,1 z m 2,-3 c -0.552,0 -1,-0.448 -1,-1 0,-0.552 0.448,-1 1,-1 0.552,0 1,0.448 1,1 0,0.552 -0.448,1 -1,1 z m 2,3 c -0.552,0 -1,-0.448 -1,-1 0,-0.552 0.448,-1 1,-1 0.552,0 1,0.448 1,1 0,0.552 -0.448,1 -1,1 z m 2,-3 c -0.552,0 -1,-0.448 -1,-1 0,-0.552 0.448,-1 1,-1 0.552,0 1,0.448 1,1 0,0.552 -0.448,1 -1,1 z m 2,3 c -0.552,0 -1,-0.448 -1,-1 0,-0.552 0.448,-1 1,-1 0.552,0 1,0.448 1,1 0,0.552 -0.448,1 -1,1 z m 2,-3 c -0.552,0 -1,-0.448 -1,-1 0,-0.552 0.448,-1 1,-1 0.552,0 1,0.448 1,1 0,0.552 -0.448,1 -1,1 z m 2,3 c -0.552,0 -1,-0.448 -1,-1 0,-0.552 0.448,-1 1,-1 0.552,0 1,0.448 1,1 0,0.552 -0.448,1 -1,1 z m 2,-3 c -0.552,0 -1,-0.448 -1,-1 0,-0.552 0.448,-1 1,-1 0.552,0 1,0.448 1,1 0,0.552 -0.448,1 -1,1 z m 2,3 c -0.552,0 -1,-0.448 -1,-1 0,-0.552 0.448,-1 1,-1 0.552,0 1,0.448 1,1 0,0.552 -0.448,1 -1,1 z"
   inkscape:connector-curvature="0" />

</g>
      <g
         id="g1552">
</g>
      <g
         id="g1554">
</g>
      <g
         id="g1556">
</g>
      <g
         id="g1558">
</g>
      <g
         id="g1560">
</g>
      <g
         id="g1562">
</g>
      <g
         id="g1564">
</g>
      <g
         id="g1566">
</g>
      <g
         id="g1568">
</g>
      <g
         id="g1570">
</g>
      <g
         id="g1572">
</g>
      <g
         id="g1574">
</g>
      <g
         id="g1576">
</g>
      <g
         id="g1578">
</g>
      <g
         id="g1580">
</g>
    </g>
    <path
       id="path1687"
       d="m -166.08213,40.299612 c -2.42172,0 -4.37154,1.949813 -4.37154,4.371541 v 8.882966 c 0,2.421679 1.94982,4.371541 4.37154,4.371541 h 47.14265 c 2.42173,0 4.37154,-1.949862 4.37154,-4.371541 v -8.882966 c 0,-2.421728 -1.94981,-4.371541 -4.37154,-4.371541 z m 3.98684,5.280807 c 0.0954,-0.01691 0.17875,0 0.2798,0 h 10.70152 c 0.80824,0 1.46883,0.625615 1.46883,1.433873 v 4.161703 c 0,0.808217 -0.66059,1.468817 -1.46883,1.468817 h -10.70152 c -0.80825,0 -1.46884,-0.6606 -1.46884,-1.468817 v -4.161703 c 0,-0.707209 0.52116,-1.303093 1.18905,-1.433873 z m -3.98684,20.144036 c -2.42172,0 -4.37154,1.94982 -4.37154,4.37154 v 8.88297 c 0,2.42173 1.94982,4.37154 4.37154,4.37154 h 47.14265 c 2.42173,0 4.37154,-1.94981 4.37154,-4.37154 v -8.88297 c 0,-2.42172 -1.94981,-4.37154 -4.37154,-4.37154 z m 3.98684,5.28081 c 0.0954,-0.0169 0.17875,0 0.2798,0 h 10.70152 c 0.80824,0 1.46883,0.62561 1.46883,1.43387 v 4.16172 c 0,0.80825 -0.66059,1.46885 -1.46883,1.46885 h -10.70152 c -0.80825,0 -1.46884,-0.6606 -1.46884,-1.46885 v -4.16172 c 0,-0.70721 0.52116,-1.30304 1.18905,-1.43387 z m -23.99099,5.70048 -22.24238,10.56165 22.24238,10.561653 v -5.525663 h 8.77804 c 1.27588,0 2.30817,-1.03226 2.30817,-2.30815 v -5.45567 c 0,-1.27589 -1.03229,-2.30819 -2.30817,-2.30819 h -8.77804 z m 87.150961,0 v 5.52563 h -8.743071 c -1.27588,0 -2.30818,1.0323 -2.30818,2.30819 v 5.45567 c 0,1.27589 1.0323,2.30815 2.30818,2.30815 h 8.743071 v 5.525663 l 22.24238,-10.561653 z m -67.146811,14.47855 c -2.42172,0 -4.37154,1.94981 -4.37154,4.371543 v 8.882962 c 0,2.42172 1.94982,4.37154 4.37154,4.37154 h 47.14265 c 2.42173,0 4.37154,-1.94982 4.37154,-4.37154 v -8.882962 c 0,-2.421733 -1.94981,-4.371543 -4.37154,-4.371543 z m 3.98684,5.280803 c 0.0954,-0.0169 0.17875,0 0.2798,0 h 10.70152 c 0.80824,0 1.46883,0.62562 1.46883,1.43388 v 4.161702 c 0,0.80826 -0.66059,1.46886 -1.46883,1.46886 h -10.70152 c -0.80825,0 -1.46884,-0.6606 -1.46884,-1.46886 v -4.161702 c 0,-0.70721 0.52116,-1.30306 1.18905,-1.43388 z m -3.98684,20.144042 c -2.42172,0 -4.37154,1.94986 -4.37154,4.37154 v 8.88297 c 0,2.42173 1.94982,4.37154 4.37154,4.37154 h 47.14265 c 2.42173,0 4.37154,-1.94981 4.37154,-4.37154 v -8.88297 c 0,-2.42168 -1.94981,-4.37154 -4.37154,-4.37154 z m 3.98684,5.28085 c 0.0954,-0.0169 0.17875,0 0.2798,0 h 10.70152 c 0.80824,0 1.46883,0.62562 1.46883,1.43383 v 4.16171 c 0,0.80825 -0.66059,1.46885 -1.46883,1.46885 h -10.70152 c -0.80825,0 -1.46884,-0.6606 -1.46884,-1.46885 v -4.16171 c 0,-0.70721 0.52116,-1.30305 1.18905,-1.43383 z"
       inkscape:connector-curvature="0"
       style="stroke-width:1.11911345" />
    <g
       id="g1820"
       transform="matrix(0.14840139,0,0,0.14840139,-397.16805,410.71328)">
      <path
         id="path1770"
         style="fill:#000000"
         d="m 158.375,1.65625 c -3.6193,0.1123192 -7.51715,1.4493266 -11.9375,4.9375 C 135.61054,2.4174496 125.11041,0.9665612 115.71875,9.46875 101.22489,7.5879922 96.508461,11.469494 92.9375,16 89.754953,15.934135 69.118652,12.72793 59.65625,26.84375 35.874602,24.030329 28.359472,40.831625 36.875,56.5 c -4.856911,7.518955 -9.889503,14.947226 1.46875,29.28125 -4.018006,7.983514 -1.527431,16.64403 7.9375,27.125 -2.497857,11.2226 2.412077,19.14086 11.21875,25.3125 -1.64709,15.35756 14.083505,24.28743 18.78125,27.46875 1.803677,8.94868 5.56291,17.3927 23.53125,22.0625 2.96323,13.3361 13.76206,15.63906 24.21875,18.4375 -34.561929,20.08954 -64.20067,46.52266 -64,111.375 l -5.0625,9.03125 C 15.337882,350.69604 -20.316547,428.16001 35.4375,491.125 c 3.641871,19.70838 9.749589,33.86396 15.1875,49.53125 8.133834,63.13058 61.21763,92.69161 75.21875,96.1875 20.51653,15.62812 42.36818,30.45672 71.9375,40.84375 27.87515,28.74946 58.07388,39.7064 88.4375,39.6875 0.44515,-2.8e-4 0.89853,0.005 1.34375,0 30.36363,0.0189 60.56235,-10.93804 88.4375,-39.6875 29.56932,-10.38703 51.42097,-25.21563 71.9375,-40.84375 14.00112,-3.49589 67.08492,-33.05692 75.21875,-96.1875 5.43791,-15.66729 11.54562,-29.82287 15.1875,-49.53125 55.75404,-62.96499 20.09961,-140.42896 -19.53125,-164.53125 L 513.75,317.5625 c 0.20067,-64.85234 -29.43807,-91.28546 -64,-111.375 10.45669,-2.79844 21.25552,-5.1014 24.21875,-18.4375 17.96834,-4.6698 21.72758,-13.11382 23.53125,-22.0625 4.69775,-3.18132 20.42834,-12.11119 18.78125,-27.46875 8.80668,-6.17164 13.71661,-14.0899 11.21875,-25.3125 9.46494,-10.48097 11.9555,-19.141487 7.9375,-27.125 C 546.79575,71.447226 541.76316,64.018955 536.90625,56.5 545.42178,40.831625 537.90665,24.030329 514.125,26.84375 504.6626,12.72793 484.0263,15.934135 480.84375,16 477.27279,11.469494 472.55636,7.587992 458.0625,9.46875 448.67084,0.96656132 438.17071,2.41745 427.34375,6.59375 414.48455,-3.5536631 405.97149,4.580454 396.25,7.65625 380.67615,2.568472 377.11698,9.5371578 369.46875,12.375 352.4935,8.7869238 347.33315,16.598532 339.1875,24.84375 l -9.46875,-0.1875 c -25.61054,15.093115 -38.33378,45.825501 -42.84375,61.625 -4.51206,-15.801979 -17.20647,-46.534542 -42.8125,-61.625 l -9.46875,0.1875 C 226.4481,16.598532 221.28775,8.7869235 204.3125,12.375 196.66427,9.5371583 193.1051,2.5684729 177.53125,7.65625 c -6.37973,-2.0184911 -12.24667,-6.2144276 -19.15625,-6 z"
         inkscape:connector-curvature="0" />
      <path
         id="path1772"
         style="fill:#75a928"
         d="m 107.39184,68.055583 c 67.94767,35.031357 107.44689,63.368967 129.08717,87.504467 -11.08235,44.41759 -68.89638,46.44464 -90.03559,45.19858 4.32842,-2.01474 7.93988,-4.42778 9.22051,-8.13574 -5.30449,-3.76981 -24.11289,-0.39719 -37.24363,-7.77416 5.04407,-1.04499 7.40348,-2.06302 9.76289,-5.78542 -12.40571,-3.9567 -25.76862,-7.36642 -33.627746,-13.92116 4.241253,0.0524 8.201156,0.9488 13.740366,-2.89271 -11.111694,-5.98819 -22.969108,-10.73351 -32.18139,-19.88738 5.745213,-0.14063 11.939452,-0.0568 13.740371,-2.16953 -10.17044,-6.30068 -18.751242,-13.30787 -25.853592,-20.97215 8.039979,0.97052 11.435284,0.13478 13.378782,-1.26556 -7.687795,-7.87419 -17.417559,-14.52319 -22.056911,-24.22644 5.969606,2.057484 11.431249,2.84506 15.36752,-0.180795 -2.612365,-5.893453 -13.805413,-9.369618 -20.248967,-23.141676 6.284359,0.609377 12.949606,1.371108 14.282753,0 C 61.802068,58.517346 56.796919,51.835885 51.887978,44.913906 65.338021,44.714177 85.715734,44.966253 84.792549,43.82914 l -8.31654,-8.497335 c 13.137617,-3.537241 26.580651,0.568164 36.339661,3.615887 4.38186,-3.457681 -0.0776,-7.82998 -5.42383,-12.294015 11.16496,1.490646 21.25382,4.057389 30.37345,7.593362 4.87238,-4.399329 -3.16389,-8.798658 -7.05098,-13.197987 17.24936,3.272568 24.55716,7.87068 31.81981,12.47481 5.26935,-5.050799 0.30166,-9.343299 -3.2543,-13.740371 13.00566,4.817048 19.70478,11.035551 26.75756,17.175463 2.39119,-3.227053 6.07494,-5.592408 1.62715,-13.378781 9.23416,5.322725 16.18926,11.59506 21.33374,18.621817 5.71336,-3.637941 3.40387,-8.613023 3.43509,-13.197987 9.59665,7.806516 15.68687,16.11395 23.14168,24.226443 1.50169,-1.093437 2.81661,-4.80171 3.97747,-10.666867 22.89539,22.211815 55.24591,78.158241 8.31654,100.340861 C 207.95028,109.95728 160.25292,86.016909 107.39184,68.055583 Z"
         inkscape:connector-curvature="0" />
      <path
         id="path1774"
         style="fill:#75a928"
         d="M 467.92487,68.055583 C 399.9772,103.08694 360.47798,131.42455 338.8377,155.56005 c 11.08235,44.41759 68.89638,46.44464 90.03559,45.19858 -4.32842,-2.01474 -7.93988,-4.42778 -9.22051,-8.13574 5.30449,-3.76981 24.11289,-0.39719 37.24363,-7.77416 -5.04407,-1.04499 -7.40348,-2.06302 -9.76289,-5.78542 12.40571,-3.9567 25.76862,-7.36642 33.62775,-13.92116 -4.24126,0.0524 -8.20116,0.9488 -13.74037,-2.89271 11.11169,-5.98819 22.96911,-10.73351 32.18139,-19.88738 -5.74521,-0.14063 -11.93945,-0.0568 -13.74037,-2.16953 10.17044,-6.30068 18.75124,-13.30787 25.85359,-20.97215 -8.03998,0.97052 -11.43528,0.13478 -13.37878,-1.26556 7.68779,-7.87419 17.41756,-14.52319 22.05691,-24.22644 -5.96961,2.057484 -11.43125,2.84506 -15.36752,-0.180795 2.61237,-5.893453 13.80541,-9.369618 20.24897,-23.141676 -6.28436,0.609377 -12.94961,1.371108 -14.28276,0 2.92231,-11.888563 7.92746,-18.570024 12.8364,-25.492003 -13.45004,-0.199729 -33.82775,0.05235 -32.90457,-1.084766 l 8.31654,-8.497335 c -13.13762,-3.537241 -26.58065,0.568164 -36.33966,3.615887 -4.38186,-3.457681 0.0776,-7.82998 5.42383,-12.294015 -11.16496,1.490646 -21.25382,4.057389 -30.37345,7.593362 -4.87238,-4.399329 3.16389,-8.798658 7.05098,-13.197987 -17.24936,3.272568 -24.55716,7.87068 -31.81981,12.47481 -5.26935,-5.050799 -0.30166,-9.343299 3.2543,-13.740371 -13.00566,4.817048 -19.70478,11.035551 -26.75756,17.175463 -2.39119,-3.227053 -6.07494,-5.592408 -1.62715,-13.378781 -9.23416,5.322725 -16.18926,11.59506 -21.33374,18.621817 -5.71336,-3.637941 -3.40387,-8.613023 -3.43509,-13.197987 -9.59665,7.806516 -15.68687,16.11395 -23.14168,24.226443 -1.50169,-1.093437 -2.81661,-4.80171 -3.97747,-10.666867 -22.89539,22.211815 -55.24591,78.158241 -8.31654,100.340861 39.91877,-32.94716 87.61613,-56.887531 140.47721,-74.848857 z"
         inkscape:connector-curvature="0" />
      <path
         id="path1776"
         style="fill:#bc1142"
         transform="matrix(1.131107,0,0,1.1280497,-43.139135,-68.310983)"
         d="m 365.2046,521.84937 a 71.956155,66.532319 0 1 1 -143.91231,0 71.956155,66.532319 0 1 1 143.91231,0 z"
         inkscape:connector-curvature="0" />
      <path
         id="path1778"
         style="fill:#bc1142"
         transform="matrix(0.76741684,-1.1613112,2.171115,1.4224368,-560.88858,217.68859)"
         d="m 262.84091,276.64774 a 61.875,28.125 0 1 1 -123.75,0 61.875,28.125 0 1 1 123.75,0 z"
         inkscape:connector-curvature="0" />
      <path
         id="path1780"
         style="fill:#bc1142"
         transform="matrix(-0.76741684,-1.1613112,-2.171115,1.4224368,1134.8288,213.68859)"
         d="m 262.84091,276.64774 a 61.875,28.125 0 1 1 -123.75,0 61.875,28.125 0 1 1 123.75,0 z"
         inkscape:connector-curvature="0" />
      <path
         id="path1782"
         style="fill:#bc1142"
         d="M 72.910253,342.0878 C 109.32447,332.33088 85.201845,492.72431 55.576871,479.56357 22.990103,453.35089 12.493801,376.58814 72.910253,342.0878 Z"
         inkscape:connector-curvature="0" />
      <path
         id="path1784"
         style="fill:#bc1142"
         d="m 493.67828,340.0878 c -36.41422,-9.75692 -12.2916,150.63651 17.33338,137.47577 32.58677,-26.21268 43.08307,-102.97543 -17.33338,-137.47577 z"
         inkscape:connector-curvature="0" />
      <path
         id="path1786"
         style="fill:#bc1142"
         d="m 369.97158,220.6534 c 62.83486,-10.61013 115.11594,26.72229 113.01138,94.85796 -2.06693,26.12112 -136.15872,-90.96907 -113.01138,-94.85796 z"
         inkscape:connector-curvature="0" />
      <path
         id="path1788"
         style="fill:#bc1142"
         d="M 196.35975,218.6534 C 133.52489,208.04327 81.24381,245.37569 83.34837,313.51136 85.4153,339.63248 219.50709,222.54229 196.35975,218.6534 Z"
         inkscape:connector-curvature="0" />
      <path
         id="path1790"
         style="fill:#bc1142"
         d="m 286.61932,202.75568 c -37.50259,-0.97548 -73.49548,27.83418 -73.58158,44.54443 -0.10462,20.30426 29.6512,41.09266 73.83726,41.62035 45.12305,0.32321 73.91561,-16.64049 74.0611,-37.59409 0.16484,-23.73996 -41.03879,-48.93744 -74.31678,-48.57069 z"
         inkscape:connector-curvature="0" />
      <path
         id="path1792"
         style="fill:#bc1142"
         d="m 288.90937,619.11675 c 32.69744,-1.42711 76.57083,10.53196 76.6568,26.39598 0.5427,15.4052 -39.78969,50.21055 -78.82634,49.53765 -40.42729,1.74391 -80.06908,-33.11559 -79.54951,-45.19859 -0.60506,-17.71593 49.226,-31.54796 81.71905,-30.73504 z"
         inkscape:connector-curvature="0" />
      <path
         id="path1794"
         style="fill:#bc1142"
         d="m 168.13874,525.10369 c 23.2791,28.04573 33.89066,77.31899 14.46355,91.84353 -18.37917,11.08784 -63.01228,6.52162 -94.736237,-39.05157 -21.395052,-38.24168 -18.637584,-77.15663 -3.615887,-88.58924 22.464424,-13.68429 57.173424,4.79902 83.888574,35.79728 z"
         inkscape:connector-curvature="0" />
      <path
         id="path1796"
         style="fill:#bc1142"
         d="m 405.0209,516.21177 c -25.18682,29.50165 -39.21227,83.30951 -20.83785,100.6428 17.56828,13.46361 64.7292,11.58162 99.56566,-36.75574 25.29599,-32.46471 16.82013,-86.68225 2.37077,-101.07511 -21.46408,-16.60213 -52.27691,4.64489 -81.09858,37.18805 z"
         inkscape:connector-curvature="0" />
    </g>
  </g>
  <style
     id="style930"
     type="text/css">
	.st0{fill:#0080FF;}
	.st1{fill-rule:evenodd;clip-rule:evenodd;fill:#0080FF;}
</style>
  <style
     id="style1026"
     type="text/css">
	.st0{fill:#252F3E;}
	.st1{fill-rule:evenodd;clip-rule:evenodd;fill:#FF9900;}
</style>
</svg>
